<mxfile host="app.diagrams.net" modified="2024-03-30T08:18:16.748Z" agent="Mozilla/5.0 (Windows NT 10.0; Win64; x64) AppleWebKit/537.36 (KHTML, like Gecko) Chrome/123.0.0.0 Safari/537.36" etag="ueRrOv9P3wUUJk9yOcck" version="24.2.1" type="google">
  <diagram name="Page-1" id="JjhR8tRUwDwc21GHfGuO">
    <mxGraphModel grid="1" page="0" gridSize="10" guides="1" tooltips="1" connect="1" arrows="1" fold="1" pageScale="1" pageWidth="850" pageHeight="1100" math="0" shadow="0">
      <root>
        <mxCell id="0" />
        <mxCell id="1" parent="0" />
        <mxCell id="8q_IShLXz2TqyMJP6I94-123" value="Customer" style="rounded=0;whiteSpace=wrap;html=1;" vertex="1" parent="1">
          <mxGeometry x="-1920" y="-664" width="120" height="60" as="geometry" />
        </mxCell>
        <mxCell id="8q_IShLXz2TqyMJP6I94-124" value="Shops" style="rhombus;whiteSpace=wrap;html=1;" vertex="1" parent="1">
          <mxGeometry x="-2035" y="-270" width="80" height="80" as="geometry" />
        </mxCell>
        <mxCell id="8q_IShLXz2TqyMJP6I94-125" value="makes" style="rhombus;whiteSpace=wrap;html=1;" vertex="1" parent="1">
          <mxGeometry x="-1760" y="-337" width="96" height="93" as="geometry" />
        </mxCell>
        <mxCell id="8q_IShLXz2TqyMJP6I94-126" value="write" style="rhombus;whiteSpace=wrap;html=1;" vertex="1" parent="1">
          <mxGeometry x="-1377" y="-431" width="80" height="80" as="geometry" />
        </mxCell>
        <mxCell id="8q_IShLXz2TqyMJP6I94-127" value="places" style="rhombus;whiteSpace=wrap;html=1;" vertex="1" parent="1">
          <mxGeometry x="-1065" y="-446" width="80" height="80" as="geometry" />
        </mxCell>
        <mxCell id="8q_IShLXz2TqyMJP6I94-128" value="likes" style="rhombus;whiteSpace=wrap;html=1;" vertex="1" parent="1">
          <mxGeometry x="-1456" y="-664" width="80" height="80" as="geometry" />
        </mxCell>
        <mxCell id="8q_IShLXz2TqyMJP6I94-129" value="wishlist" style="rounded=0;whiteSpace=wrap;html=1;" vertex="1" parent="1">
          <mxGeometry x="-1500" y="-871" width="116" height="52" as="geometry" />
        </mxCell>
        <mxCell id="8q_IShLXz2TqyMJP6I94-130" value="supplier" style="rounded=0;whiteSpace=wrap;html=1;" vertex="1" parent="1">
          <mxGeometry x="-993" y="-839" width="120" height="60" as="geometry" />
        </mxCell>
        <mxCell id="8q_IShLXz2TqyMJP6I94-131" value="sales" style="rhombus;whiteSpace=wrap;html=1;" vertex="1" parent="1">
          <mxGeometry x="-877" y="-709" width="80" height="80" as="geometry" />
        </mxCell>
        <mxCell id="8q_IShLXz2TqyMJP6I94-132" value="product" style="rounded=0;whiteSpace=wrap;html=1;" vertex="1" parent="1">
          <mxGeometry x="-694" y="-575" width="120" height="60" as="geometry" />
        </mxCell>
        <mxCell id="8q_IShLXz2TqyMJP6I94-133" value="categorize" style="rhombus;whiteSpace=wrap;html=1;" vertex="1" parent="1">
          <mxGeometry x="-905" y="-603" width="80" height="80" as="geometry" />
        </mxCell>
        <mxCell id="8q_IShLXz2TqyMJP6I94-134" value="category" style="rounded=0;whiteSpace=wrap;html=1;" vertex="1" parent="1">
          <mxGeometry x="-1093" y="-620" width="120" height="60" as="geometry" />
        </mxCell>
        <mxCell id="8q_IShLXz2TqyMJP6I94-135" value="for" style="rhombus;whiteSpace=wrap;html=1;" vertex="1" parent="1">
          <mxGeometry x="-1047" y="-163" width="80" height="80" as="geometry" />
        </mxCell>
        <mxCell id="8q_IShLXz2TqyMJP6I94-136" value="Payment" style="rounded=0;whiteSpace=wrap;html=1;" vertex="1" parent="1">
          <mxGeometry x="-1535" y="-71" width="120" height="60" as="geometry" />
        </mxCell>
        <mxCell id="8q_IShLXz2TqyMJP6I94-137" value="cart" style="rounded=0;whiteSpace=wrap;html=1;" vertex="1" parent="1">
          <mxGeometry x="-2058" y="-119" width="120" height="60" as="geometry" />
        </mxCell>
        <mxCell id="8q_IShLXz2TqyMJP6I94-138" value="confirms" style="rhombus;whiteSpace=wrap;html=1;" vertex="1" parent="1">
          <mxGeometry x="-1435" y="286" width="80" height="80" as="geometry" />
        </mxCell>
        <mxCell id="8q_IShLXz2TqyMJP6I94-139" value="shipment" style="rounded=0;whiteSpace=wrap;html=1;" vertex="1" parent="1">
          <mxGeometry x="-1426" y="453" width="120" height="60" as="geometry" />
        </mxCell>
        <mxCell id="8q_IShLXz2TqyMJP6I94-140" value="previous" style="rhombus;whiteSpace=wrap;html=1;" vertex="1" parent="1">
          <mxGeometry x="-1274" y="24" width="80" height="80" as="geometry" />
        </mxCell>
        <mxCell id="8q_IShLXz2TqyMJP6I94-141" value="payment history" style="rounded=0;whiteSpace=wrap;html=1;" vertex="1" parent="1">
          <mxGeometry x="-1099" y="238" width="120" height="60" as="geometry" />
        </mxCell>
        <mxCell id="8q_IShLXz2TqyMJP6I94-142" value="review" style="rounded=0;whiteSpace=wrap;html=1;" vertex="1" parent="1">
          <mxGeometry x="-1391" y="-286" width="120" height="60" as="geometry" />
        </mxCell>
        <mxCell id="8q_IShLXz2TqyMJP6I94-143" value="order" style="rounded=0;whiteSpace=wrap;html=1;" vertex="1" parent="1">
          <mxGeometry x="-658" y="-138" width="120" height="60" as="geometry" />
        </mxCell>
        <mxCell id="8q_IShLXz2TqyMJP6I94-144" value="includes" style="rhombus;whiteSpace=wrap;html=1;" vertex="1" parent="1">
          <mxGeometry x="-358" y="-171" width="80" height="80" as="geometry" />
        </mxCell>
        <mxCell id="8q_IShLXz2TqyMJP6I94-145" value="order item" style="rounded=0;whiteSpace=wrap;html=1;" vertex="1" parent="1">
          <mxGeometry x="-477" y="160" width="120" height="60" as="geometry" />
        </mxCell>
        <mxCell id="8q_IShLXz2TqyMJP6I94-146" value="" style="endArrow=none;html=1;rounded=0;" edge="1" parent="1" source="8q_IShLXz2TqyMJP6I94-123" target="8q_IShLXz2TqyMJP6I94-128">
          <mxGeometry width="50" height="50" relative="1" as="geometry">
            <mxPoint x="-1365" y="-435" as="sourcePoint" />
            <mxPoint x="-1315" y="-485" as="targetPoint" />
          </mxGeometry>
        </mxCell>
        <mxCell id="8q_IShLXz2TqyMJP6I94-147" value="" style="endArrow=none;html=1;rounded=0;" edge="1" parent="1" source="8q_IShLXz2TqyMJP6I94-135" target="8q_IShLXz2TqyMJP6I94-143">
          <mxGeometry width="50" height="50" relative="1" as="geometry">
            <mxPoint x="-1025" y="-441" as="sourcePoint" />
            <mxPoint x="-975" y="-491" as="targetPoint" />
          </mxGeometry>
        </mxCell>
        <mxCell id="8q_IShLXz2TqyMJP6I94-148" value="" style="endArrow=none;html=1;rounded=0;" edge="1" parent="1" source="8q_IShLXz2TqyMJP6I94-136" target="8q_IShLXz2TqyMJP6I94-135">
          <mxGeometry width="50" height="50" relative="1" as="geometry">
            <mxPoint x="-1025" y="-441" as="sourcePoint" />
            <mxPoint x="-975" y="-491" as="targetPoint" />
          </mxGeometry>
        </mxCell>
        <mxCell id="8q_IShLXz2TqyMJP6I94-149" value="" style="endArrow=none;html=1;rounded=0;" edge="1" parent="1" source="8q_IShLXz2TqyMJP6I94-123" target="8q_IShLXz2TqyMJP6I94-126">
          <mxGeometry width="50" height="50" relative="1" as="geometry">
            <mxPoint x="-1025" y="-441" as="sourcePoint" />
            <mxPoint x="-975" y="-491" as="targetPoint" />
          </mxGeometry>
        </mxCell>
        <mxCell id="8q_IShLXz2TqyMJP6I94-150" value="" style="endArrow=none;html=1;rounded=0;entryX=0.575;entryY=0;entryDx=0;entryDy=0;entryPerimeter=0;" edge="1" parent="1" source="8q_IShLXz2TqyMJP6I94-126" target="8q_IShLXz2TqyMJP6I94-142">
          <mxGeometry width="50" height="50" relative="1" as="geometry">
            <mxPoint x="-1025" y="-441" as="sourcePoint" />
            <mxPoint x="-975" y="-491" as="targetPoint" />
          </mxGeometry>
        </mxCell>
        <mxCell id="8q_IShLXz2TqyMJP6I94-151" value="" style="endArrow=none;html=1;rounded=0;" edge="1" parent="1" source="8q_IShLXz2TqyMJP6I94-127" target="8q_IShLXz2TqyMJP6I94-143">
          <mxGeometry width="50" height="50" relative="1" as="geometry">
            <mxPoint x="-1025" y="-441" as="sourcePoint" />
            <mxPoint x="-975" y="-491" as="targetPoint" />
          </mxGeometry>
        </mxCell>
        <mxCell id="8q_IShLXz2TqyMJP6I94-152" value="" style="endArrow=none;html=1;rounded=0;" edge="1" parent="1" source="8q_IShLXz2TqyMJP6I94-127" target="8q_IShLXz2TqyMJP6I94-123">
          <mxGeometry width="50" height="50" relative="1" as="geometry">
            <mxPoint x="-1025" y="-441" as="sourcePoint" />
            <mxPoint x="-975" y="-491" as="targetPoint" />
          </mxGeometry>
        </mxCell>
        <mxCell id="8q_IShLXz2TqyMJP6I94-153" value="" style="endArrow=none;html=1;rounded=0;" edge="1" parent="1" source="8q_IShLXz2TqyMJP6I94-128" target="8q_IShLXz2TqyMJP6I94-129">
          <mxGeometry width="50" height="50" relative="1" as="geometry">
            <mxPoint x="-1025" y="-441" as="sourcePoint" />
            <mxPoint x="-975" y="-491" as="targetPoint" />
          </mxGeometry>
        </mxCell>
        <mxCell id="8q_IShLXz2TqyMJP6I94-154" value="" style="endArrow=none;html=1;rounded=0;" edge="1" parent="1" source="8q_IShLXz2TqyMJP6I94-136" target="8q_IShLXz2TqyMJP6I94-140">
          <mxGeometry width="50" height="50" relative="1" as="geometry">
            <mxPoint x="-1025" y="-441" as="sourcePoint" />
            <mxPoint x="-975" y="-491" as="targetPoint" />
          </mxGeometry>
        </mxCell>
        <mxCell id="8q_IShLXz2TqyMJP6I94-155" value="" style="endArrow=none;html=1;rounded=0;" edge="1" parent="1" source="8q_IShLXz2TqyMJP6I94-140" target="8q_IShLXz2TqyMJP6I94-141">
          <mxGeometry width="50" height="50" relative="1" as="geometry">
            <mxPoint x="-1226" y="64" as="sourcePoint" />
            <mxPoint x="-1176" y="14" as="targetPoint" />
          </mxGeometry>
        </mxCell>
        <mxCell id="8q_IShLXz2TqyMJP6I94-156" value="" style="endArrow=none;html=1;rounded=0;" edge="1" parent="1" source="8q_IShLXz2TqyMJP6I94-138" target="8q_IShLXz2TqyMJP6I94-136">
          <mxGeometry width="50" height="50" relative="1" as="geometry">
            <mxPoint x="-1025" y="-441" as="sourcePoint" />
            <mxPoint x="-975" y="-491" as="targetPoint" />
          </mxGeometry>
        </mxCell>
        <mxCell id="8q_IShLXz2TqyMJP6I94-157" value="" style="endArrow=none;html=1;rounded=0;" edge="1" parent="1" source="8q_IShLXz2TqyMJP6I94-139" target="8q_IShLXz2TqyMJP6I94-138">
          <mxGeometry width="50" height="50" relative="1" as="geometry">
            <mxPoint x="-1517" y="141" as="sourcePoint" />
            <mxPoint x="-1396" y="35" as="targetPoint" />
          </mxGeometry>
        </mxCell>
        <mxCell id="8q_IShLXz2TqyMJP6I94-158" value="" style="endArrow=none;html=1;rounded=0;" edge="1" parent="1" source="8q_IShLXz2TqyMJP6I94-136" target="8q_IShLXz2TqyMJP6I94-125">
          <mxGeometry width="50" height="50" relative="1" as="geometry">
            <mxPoint x="-1025" y="-441" as="sourcePoint" />
            <mxPoint x="-975" y="-491" as="targetPoint" />
          </mxGeometry>
        </mxCell>
        <mxCell id="8q_IShLXz2TqyMJP6I94-159" value="" style="endArrow=none;html=1;rounded=0;exitX=0.5;exitY=0.042;exitDx=0;exitDy=0;exitPerimeter=0;entryX=0.475;entryY=0.944;entryDx=0;entryDy=0;entryPerimeter=0;" edge="1" parent="1" source="8q_IShLXz2TqyMJP6I94-137" target="8q_IShLXz2TqyMJP6I94-124">
          <mxGeometry width="50" height="50" relative="1" as="geometry">
            <mxPoint x="-1025" y="-441" as="sourcePoint" />
            <mxPoint x="-975" y="-491" as="targetPoint" />
          </mxGeometry>
        </mxCell>
        <mxCell id="8q_IShLXz2TqyMJP6I94-160" value="" style="endArrow=none;html=1;rounded=0;" edge="1" parent="1" source="8q_IShLXz2TqyMJP6I94-125" target="8q_IShLXz2TqyMJP6I94-123">
          <mxGeometry width="50" height="50" relative="1" as="geometry">
            <mxPoint x="-1025" y="-441" as="sourcePoint" />
            <mxPoint x="-975" y="-491" as="targetPoint" />
          </mxGeometry>
        </mxCell>
        <mxCell id="8q_IShLXz2TqyMJP6I94-161" value="" style="endArrow=none;html=1;rounded=0;exitX=0.525;exitY=0;exitDx=0;exitDy=0;exitPerimeter=0;entryX=0.217;entryY=0.992;entryDx=0;entryDy=0;entryPerimeter=0;" edge="1" parent="1" source="8q_IShLXz2TqyMJP6I94-124" target="8q_IShLXz2TqyMJP6I94-123">
          <mxGeometry width="50" height="50" relative="1" as="geometry">
            <mxPoint x="-1025" y="-441" as="sourcePoint" />
            <mxPoint x="-975" y="-491" as="targetPoint" />
          </mxGeometry>
        </mxCell>
        <mxCell id="8q_IShLXz2TqyMJP6I94-162" value="" style="endArrow=none;html=1;rounded=0;" edge="1" parent="1" source="8q_IShLXz2TqyMJP6I94-134" target="8q_IShLXz2TqyMJP6I94-133">
          <mxGeometry width="50" height="50" relative="1" as="geometry">
            <mxPoint x="-962" y="-438" as="sourcePoint" />
            <mxPoint x="-912" y="-488" as="targetPoint" />
          </mxGeometry>
        </mxCell>
        <mxCell id="8q_IShLXz2TqyMJP6I94-163" value="" style="endArrow=none;html=1;rounded=0;" edge="1" parent="1" source="8q_IShLXz2TqyMJP6I94-133" target="8q_IShLXz2TqyMJP6I94-132">
          <mxGeometry width="50" height="50" relative="1" as="geometry">
            <mxPoint x="-862" y="-444" as="sourcePoint" />
            <mxPoint x="-812" y="-494" as="targetPoint" />
          </mxGeometry>
        </mxCell>
        <mxCell id="8q_IShLXz2TqyMJP6I94-164" value="" style="endArrow=none;html=1;rounded=0;" edge="1" parent="1" source="8q_IShLXz2TqyMJP6I94-132" target="8q_IShLXz2TqyMJP6I94-144">
          <mxGeometry width="50" height="50" relative="1" as="geometry">
            <mxPoint x="-837" y="-51" as="sourcePoint" />
            <mxPoint x="-787" y="-101" as="targetPoint" />
          </mxGeometry>
        </mxCell>
        <mxCell id="8q_IShLXz2TqyMJP6I94-165" value="" style="endArrow=none;html=1;rounded=0;" edge="1" parent="1" source="8q_IShLXz2TqyMJP6I94-145" target="8q_IShLXz2TqyMJP6I94-144">
          <mxGeometry width="50" height="50" relative="1" as="geometry">
            <mxPoint x="-361" y="154" as="sourcePoint" />
            <mxPoint x="-787" y="-101" as="targetPoint" />
          </mxGeometry>
        </mxCell>
        <mxCell id="8q_IShLXz2TqyMJP6I94-166" value="" style="endArrow=none;html=1;rounded=0;" edge="1" parent="1" source="8q_IShLXz2TqyMJP6I94-143" target="8q_IShLXz2TqyMJP6I94-170">
          <mxGeometry width="50" height="50" relative="1" as="geometry">
            <mxPoint x="-837" y="-51" as="sourcePoint" />
            <mxPoint x="-617.9560000000001" y="-27.701000000000022" as="targetPoint" />
          </mxGeometry>
        </mxCell>
        <mxCell id="8q_IShLXz2TqyMJP6I94-167" value="" style="endArrow=none;html=1;rounded=0;" edge="1" parent="1" source="8q_IShLXz2TqyMJP6I94-145" target="8q_IShLXz2TqyMJP6I94-170">
          <mxGeometry width="50" height="50" relative="1" as="geometry">
            <mxPoint x="-837" y="-51" as="sourcePoint" />
            <mxPoint x="-617.9560000000001" y="92.33100000000013" as="targetPoint" />
          </mxGeometry>
        </mxCell>
        <mxCell id="8q_IShLXz2TqyMJP6I94-168" value="" style="endArrow=none;html=1;rounded=0;" edge="1" parent="1" source="8q_IShLXz2TqyMJP6I94-130" target="8q_IShLXz2TqyMJP6I94-131">
          <mxGeometry width="50" height="50" relative="1" as="geometry">
            <mxPoint x="-998" y="-420" as="sourcePoint" />
            <mxPoint x="-948" y="-470" as="targetPoint" />
          </mxGeometry>
        </mxCell>
        <mxCell id="8q_IShLXz2TqyMJP6I94-169" value="" style="endArrow=none;html=1;rounded=0;" edge="1" parent="1" source="8q_IShLXz2TqyMJP6I94-131" target="8q_IShLXz2TqyMJP6I94-132">
          <mxGeometry width="50" height="50" relative="1" as="geometry">
            <mxPoint x="-998" y="-420" as="sourcePoint" />
            <mxPoint x="-948" y="-470" as="targetPoint" />
          </mxGeometry>
        </mxCell>
        <mxCell id="8q_IShLXz2TqyMJP6I94-170" value="includes" style="shape=rhombus;double=1;perimeter=rhombusPerimeter;whiteSpace=wrap;html=1;align=center;" vertex="1" parent="1">
          <mxGeometry x="-647" y="-4" width="59" height="60" as="geometry" />
        </mxCell>
        <mxCell id="8q_IShLXz2TqyMJP6I94-171" value="customer_id" style="ellipse;whiteSpace=wrap;html=1;align=center;fontStyle=4;" vertex="1" parent="1">
          <mxGeometry x="-2038" y="-819" width="100" height="40" as="geometry" />
        </mxCell>
        <mxCell id="8q_IShLXz2TqyMJP6I94-172" value="Name" style="ellipse;whiteSpace=wrap;html=1;align=center;" vertex="1" parent="1">
          <mxGeometry x="-2176" y="-824" width="100" height="40" as="geometry" />
        </mxCell>
        <mxCell id="8q_IShLXz2TqyMJP6I94-173" value="email" style="ellipse;whiteSpace=wrap;html=1;align=center;" vertex="1" parent="1">
          <mxGeometry x="-2270" y="-769" width="100" height="40" as="geometry" />
        </mxCell>
        <mxCell id="8q_IShLXz2TqyMJP6I94-174" value="DOB" style="ellipse;whiteSpace=wrap;html=1;align=center;" vertex="1" parent="1">
          <mxGeometry x="-2276" y="-695" width="100" height="40" as="geometry" />
        </mxCell>
        <mxCell id="8q_IShLXz2TqyMJP6I94-175" value="phone" style="ellipse;shape=doubleEllipse;margin=3;whiteSpace=wrap;html=1;align=center;" vertex="1" parent="1">
          <mxGeometry x="-2249" y="-624" width="100" height="40" as="geometry" />
        </mxCell>
        <mxCell id="8q_IShLXz2TqyMJP6I94-177" value="address" style="ellipse;whiteSpace=wrap;html=1;align=center;" vertex="1" parent="1">
          <mxGeometry x="-1900" y="-819" width="100" height="40" as="geometry" />
        </mxCell>
        <mxCell id="8q_IShLXz2TqyMJP6I94-178" value="customer_id" style="ellipse;whiteSpace=wrap;html=1;align=center;" vertex="1" parent="1">
          <mxGeometry x="-1992" y="28" width="100" height="40" as="geometry" />
        </mxCell>
        <mxCell id="8q_IShLXz2TqyMJP6I94-179" value="Grand_total" style="ellipse;whiteSpace=wrap;html=1;align=center;" vertex="1" parent="1">
          <mxGeometry x="-2126" y="32" width="100" height="40" as="geometry" />
        </mxCell>
        <mxCell id="8q_IShLXz2TqyMJP6I94-180" value="total_item" style="ellipse;whiteSpace=wrap;html=1;align=center;" vertex="1" parent="1">
          <mxGeometry x="-2223" y="-20" width="100" height="40" as="geometry" />
        </mxCell>
        <mxCell id="8q_IShLXz2TqyMJP6I94-181" value="Cart_id" style="ellipse;whiteSpace=wrap;html=1;align=center;fontStyle=4;" vertex="1" parent="1">
          <mxGeometry x="-2228" y="-87" width="100" height="40" as="geometry" />
        </mxCell>
        <mxCell id="8q_IShLXz2TqyMJP6I94-182" value="Payment_id" style="ellipse;whiteSpace=wrap;html=1;align=center;fontStyle=4;" vertex="1" parent="1">
          <mxGeometry x="-1816" y="-28" width="100" height="40" as="geometry" />
        </mxCell>
        <mxCell id="8q_IShLXz2TqyMJP6I94-183" value="order_id" style="ellipse;whiteSpace=wrap;html=1;align=center;" vertex="1" parent="1">
          <mxGeometry x="-1770" y="-82" width="100" height="40" as="geometry" />
        </mxCell>
        <mxCell id="8q_IShLXz2TqyMJP6I94-184" value="customer_id" style="ellipse;whiteSpace=wrap;html=1;align=center;" vertex="1" parent="1">
          <mxGeometry x="-1700" y="-140" width="100" height="40" as="geometry" />
        </mxCell>
        <mxCell id="8q_IShLXz2TqyMJP6I94-185" value="payment_mode" style="ellipse;whiteSpace=wrap;html=1;align=center;" vertex="1" parent="1">
          <mxGeometry x="-1749" y="30" width="100" height="40" as="geometry" />
        </mxCell>
        <mxCell id="8q_IShLXz2TqyMJP6I94-186" value="Payment_date" style="ellipse;whiteSpace=wrap;html=1;align=center;" vertex="1" parent="1">
          <mxGeometry x="-1665" y="84" width="100" height="40" as="geometry" />
        </mxCell>
        <mxCell id="8q_IShLXz2TqyMJP6I94-187" value="payment_history_id" style="ellipse;whiteSpace=wrap;html=1;align=center;fontStyle=4;" vertex="1" parent="1">
          <mxGeometry x="-1253" y="302" width="141" height="40" as="geometry" />
        </mxCell>
        <mxCell id="8q_IShLXz2TqyMJP6I94-188" value="payment_id" style="ellipse;whiteSpace=wrap;html=1;align=center;" vertex="1" parent="1">
          <mxGeometry x="-1171" y="370" width="100" height="40" as="geometry" />
        </mxCell>
        <mxCell id="8q_IShLXz2TqyMJP6I94-189" value="transaction_Id" style="ellipse;whiteSpace=wrap;html=1;align=center;" vertex="1" parent="1">
          <mxGeometry x="-914" y="246" width="100" height="40" as="geometry" />
        </mxCell>
        <mxCell id="8q_IShLXz2TqyMJP6I94-190" value="payment _data" style="ellipse;whiteSpace=wrap;html=1;align=center;" vertex="1" parent="1">
          <mxGeometry x="-1039" y="370" width="100" height="40" as="geometry" />
        </mxCell>
        <mxCell id="8q_IShLXz2TqyMJP6I94-191" value="status" style="ellipse;whiteSpace=wrap;html=1;align=center;" vertex="1" parent="1">
          <mxGeometry x="-941" y="323" width="100" height="40" as="geometry" />
        </mxCell>
        <mxCell id="8q_IShLXz2TqyMJP6I94-192" value="review_id" style="ellipse;whiteSpace=wrap;html=1;align=center;fontStyle=4;" vertex="1" parent="1">
          <mxGeometry x="-1528" y="-288" width="100" height="40" as="geometry" />
        </mxCell>
        <mxCell id="8q_IShLXz2TqyMJP6I94-193" value="description" style="ellipse;whiteSpace=wrap;html=1;align=center;" vertex="1" parent="1">
          <mxGeometry x="-1509" y="-222" width="100" height="40" as="geometry" />
        </mxCell>
        <mxCell id="8q_IShLXz2TqyMJP6I94-194" value="Ratings" style="ellipse;whiteSpace=wrap;html=1;align=center;" vertex="1" parent="1">
          <mxGeometry x="-1392" y="-192" width="100" height="40" as="geometry" />
        </mxCell>
        <mxCell id="8q_IShLXz2TqyMJP6I94-195" value="product_id" style="ellipse;whiteSpace=wrap;html=1;align=center;" vertex="1" parent="1">
          <mxGeometry x="-1268" y="-200" width="100" height="40" as="geometry" />
        </mxCell>
        <mxCell id="8q_IShLXz2TqyMJP6I94-196" value="customer_id" style="ellipse;whiteSpace=wrap;html=1;align=center;" vertex="1" parent="1">
          <mxGeometry x="-1229" y="-266" width="100" height="40" as="geometry" />
        </mxCell>
        <mxCell id="8q_IShLXz2TqyMJP6I94-197" value="supplier_id" style="ellipse;whiteSpace=wrap;html=1;align=center;fontStyle=4;" vertex="1" parent="1">
          <mxGeometry x="-845" y="-1039" width="100" height="40" as="geometry" />
        </mxCell>
        <mxCell id="8q_IShLXz2TqyMJP6I94-198" value="name" style="ellipse;whiteSpace=wrap;html=1;align=center;" vertex="1" parent="1">
          <mxGeometry x="-1065" y="-971" width="100" height="40" as="geometry" />
        </mxCell>
        <mxCell id="8q_IShLXz2TqyMJP6I94-199" value="phone" style="ellipse;whiteSpace=wrap;html=1;align=center;" vertex="1" parent="1">
          <mxGeometry x="-970" y="-1040" width="100" height="40" as="geometry" />
        </mxCell>
        <mxCell id="8q_IShLXz2TqyMJP6I94-200" value="address" style="ellipse;whiteSpace=wrap;html=1;align=center;" vertex="1" parent="1">
          <mxGeometry x="-774" y="-969" width="100" height="40" as="geometry" />
        </mxCell>
        <mxCell id="8q_IShLXz2TqyMJP6I94-201" value="product_id" style="ellipse;whiteSpace=wrap;html=1;align=center;fontStyle=4;rotation=0;" vertex="1" parent="1">
          <mxGeometry x="-524" y="-701" width="100" height="40" as="geometry" />
        </mxCell>
        <mxCell id="8q_IShLXz2TqyMJP6I94-202" value="product_name" style="ellipse;whiteSpace=wrap;html=1;align=center;rotation=0;" vertex="1" parent="1">
          <mxGeometry x="-637" y="-718" width="100" height="40" as="geometry" />
        </mxCell>
        <mxCell id="8q_IShLXz2TqyMJP6I94-203" value="MRP" style="ellipse;whiteSpace=wrap;html=1;align=center;" vertex="1" parent="1">
          <mxGeometry x="-430" y="-576" width="100" height="40" as="geometry" />
        </mxCell>
        <mxCell id="8q_IShLXz2TqyMJP6I94-204" value="Category_id" style="ellipse;whiteSpace=wrap;html=1;align=center;" vertex="1" parent="1">
          <mxGeometry x="-412" y="-623" width="100" height="40" as="geometry" />
        </mxCell>
        <mxCell id="8q_IShLXz2TqyMJP6I94-205" value="stock" style="ellipse;whiteSpace=wrap;html=1;align=center;" vertex="1" parent="1">
          <mxGeometry x="-425" y="-661" width="100" height="34" as="geometry" />
        </mxCell>
        <mxCell id="8q_IShLXz2TqyMJP6I94-206" value="Brand" style="ellipse;whiteSpace=wrap;html=1;align=center;rotation=0;" vertex="1" parent="1">
          <mxGeometry x="-474" y="-523" width="100" height="40" as="geometry" />
        </mxCell>
        <mxCell id="8q_IShLXz2TqyMJP6I94-207" value="Order_id" style="ellipse;whiteSpace=wrap;html=1;align=center;fontStyle=4;" vertex="1" parent="1">
          <mxGeometry x="-634" y="241" width="100" height="40" as="geometry" />
        </mxCell>
        <mxCell id="8q_IShLXz2TqyMJP6I94-208" value="quantity" style="ellipse;whiteSpace=wrap;html=1;align=center;" vertex="1" parent="1">
          <mxGeometry x="-588" y="304" width="100" height="40" as="geometry" />
        </mxCell>
        <mxCell id="8q_IShLXz2TqyMJP6I94-209" value="product_id" style="ellipse;whiteSpace=wrap;html=1;align=center;" vertex="1" parent="1">
          <mxGeometry x="-472" y="334" width="100" height="40" as="geometry" />
        </mxCell>
        <mxCell id="8q_IShLXz2TqyMJP6I94-210" value="order_item_id" style="ellipse;whiteSpace=wrap;html=1;align=center;" vertex="1" parent="1">
          <mxGeometry x="-377" y="289" width="100" height="40" as="geometry" />
        </mxCell>
        <mxCell id="8q_IShLXz2TqyMJP6I94-211" value="unit_price" style="ellipse;whiteSpace=wrap;html=1;align=center;" vertex="1" parent="1">
          <mxGeometry x="-341" y="223" width="100" height="40" as="geometry" />
        </mxCell>
        <mxCell id="8q_IShLXz2TqyMJP6I94-212" value="order_id" style="ellipse;whiteSpace=wrap;html=1;align=center;fontStyle=4;" vertex="1" parent="1">
          <mxGeometry x="-501" y="-223" width="100" height="40" as="geometry" />
        </mxCell>
        <mxCell id="8q_IShLXz2TqyMJP6I94-213" value="shipping_date" style="ellipse;whiteSpace=wrap;html=1;align=center;" vertex="1" parent="1">
          <mxGeometry x="-612" y="-214" width="100" height="40" as="geometry" />
        </mxCell>
        <mxCell id="8q_IShLXz2TqyMJP6I94-214" value="order_date" style="ellipse;whiteSpace=wrap;html=1;align=center;" vertex="1" parent="1">
          <mxGeometry x="-541" y="-42" width="100" height="40" as="geometry" />
        </mxCell>
        <mxCell id="8q_IShLXz2TqyMJP6I94-215" value="Order_amount" style="ellipse;whiteSpace=wrap;html=1;align=center;" vertex="1" parent="1">
          <mxGeometry x="-487" y="-94" width="100" height="40" as="geometry" />
        </mxCell>
        <mxCell id="8q_IShLXz2TqyMJP6I94-216" value="cart_id" style="ellipse;whiteSpace=wrap;html=1;align=center;" vertex="1" parent="1">
          <mxGeometry x="-494" y="-156" width="100" height="40" as="geometry" />
        </mxCell>
        <mxCell id="8q_IShLXz2TqyMJP6I94-217" value="category_id" style="ellipse;whiteSpace=wrap;html=1;align=center;fontStyle=4;" vertex="1" parent="1">
          <mxGeometry x="-1225" y="-568" width="100" height="40" as="geometry" />
        </mxCell>
        <mxCell id="8q_IShLXz2TqyMJP6I94-218" value="Category_name" style="ellipse;whiteSpace=wrap;html=1;align=center;" vertex="1" parent="1">
          <mxGeometry x="-1233" y="-634" width="100" height="40" as="geometry" />
        </mxCell>
        <mxCell id="8q_IShLXz2TqyMJP6I94-219" value="description" style="ellipse;whiteSpace=wrap;html=1;align=center;" vertex="1" parent="1">
          <mxGeometry x="-1174" y="-695" width="100" height="40" as="geometry" />
        </mxCell>
        <mxCell id="8q_IShLXz2TqyMJP6I94-220" value="wishlist_id" style="ellipse;whiteSpace=wrap;html=1;align=center;fontStyle=4;" vertex="1" parent="1">
          <mxGeometry x="-1353" y="-939" width="100" height="40" as="geometry" />
        </mxCell>
        <mxCell id="8q_IShLXz2TqyMJP6I94-221" value="customer_id" style="ellipse;whiteSpace=wrap;html=1;align=center;" vertex="1" parent="1">
          <mxGeometry x="-1653" y="-895" width="100" height="40" as="geometry" />
        </mxCell>
        <mxCell id="8q_IShLXz2TqyMJP6I94-222" value="Product_id" style="ellipse;whiteSpace=wrap;html=1;align=center;" vertex="1" parent="1">
          <mxGeometry x="-1614" y="-990" width="100" height="40" as="geometry" />
        </mxCell>
        <mxCell id="8q_IShLXz2TqyMJP6I94-223" value="added_at" style="ellipse;whiteSpace=wrap;html=1;align=center;" vertex="1" parent="1">
          <mxGeometry x="-1486" y="-1003" width="100" height="40" as="geometry" />
        </mxCell>
        <mxCell id="8q_IShLXz2TqyMJP6I94-224" value="shipment_id" style="ellipse;whiteSpace=wrap;html=1;align=center;fontStyle=4;" vertex="1" parent="1">
          <mxGeometry x="-1594" y="548" width="100" height="40" as="geometry" />
        </mxCell>
        <mxCell id="8q_IShLXz2TqyMJP6I94-225" value="order_id" style="ellipse;whiteSpace=wrap;html=1;align=center;" vertex="1" parent="1">
          <mxGeometry x="-1245" y="506" width="100" height="40" as="geometry" />
        </mxCell>
        <mxCell id="8q_IShLXz2TqyMJP6I94-226" value="shipment_date" style="ellipse;whiteSpace=wrap;html=1;align=center;" vertex="1" parent="1">
          <mxGeometry x="-1294" y="565" width="100" height="40" as="geometry" />
        </mxCell>
        <mxCell id="8q_IShLXz2TqyMJP6I94-227" value="estimate_date" style="ellipse;whiteSpace=wrap;html=1;align=center;" vertex="1" parent="1">
          <mxGeometry x="-1380" y="604" width="100" height="40" as="geometry" />
        </mxCell>
        <mxCell id="8q_IShLXz2TqyMJP6I94-228" value="arrival_date" style="ellipse;whiteSpace=wrap;html=1;align=center;" vertex="1" parent="1">
          <mxGeometry x="-1503" y="601" width="100" height="40" as="geometry" />
        </mxCell>
        <mxCell id="8q_IShLXz2TqyMJP6I94-229" value="" style="verticalLabelPosition=bottom;verticalAlign=top;html=1;shape=mxgraph.basic.smiley" vertex="1" parent="1">
          <mxGeometry x="90" y="490" width="100" height="100" as="geometry" />
        </mxCell>
        <mxCell id="8q_IShLXz2TqyMJP6I94-230" value="" style="endArrow=classic;html=1;rounded=0;entryX=0.599;entryY=0.94;entryDx=0;entryDy=0;entryPerimeter=0;" edge="1" parent="1" source="8q_IShLXz2TqyMJP6I94-123" target="8q_IShLXz2TqyMJP6I94-172">
          <mxGeometry width="50" height="50" relative="1" as="geometry">
            <mxPoint x="-1945" y="-514" as="sourcePoint" />
            <mxPoint x="-1895" y="-564" as="targetPoint" />
          </mxGeometry>
        </mxCell>
        <mxCell id="8q_IShLXz2TqyMJP6I94-232" value="" style="endArrow=classic;html=1;rounded=0;entryX=0.956;entryY=0.637;entryDx=0;entryDy=0;entryPerimeter=0;" edge="1" parent="1" source="8q_IShLXz2TqyMJP6I94-123" target="8q_IShLXz2TqyMJP6I94-173">
          <mxGeometry width="50" height="50" relative="1" as="geometry">
            <mxPoint x="-1864" y="-527" as="sourcePoint" />
            <mxPoint x="-2091" y="-674" as="targetPoint" />
          </mxGeometry>
        </mxCell>
        <mxCell id="8q_IShLXz2TqyMJP6I94-233" value="" style="endArrow=classic;html=1;rounded=0;entryX=0.99;entryY=0.537;entryDx=0;entryDy=0;entryPerimeter=0;" edge="1" parent="1" source="8q_IShLXz2TqyMJP6I94-123" target="8q_IShLXz2TqyMJP6I94-174">
          <mxGeometry width="50" height="50" relative="1" as="geometry">
            <mxPoint x="-1865" y="-516" as="sourcePoint" />
            <mxPoint x="-2149" y="-632" as="targetPoint" />
          </mxGeometry>
        </mxCell>
        <mxCell id="8q_IShLXz2TqyMJP6I94-234" value="" style="endArrow=classic;html=1;rounded=0;" edge="1" parent="1" source="8q_IShLXz2TqyMJP6I94-123" target="8q_IShLXz2TqyMJP6I94-175">
          <mxGeometry width="50" height="50" relative="1" as="geometry">
            <mxPoint x="-1863" y="-507" as="sourcePoint" />
            <mxPoint x="-2191" y="-568" as="targetPoint" />
          </mxGeometry>
        </mxCell>
        <mxCell id="8q_IShLXz2TqyMJP6I94-235" value="" style="endArrow=classic;html=1;rounded=0;entryX=0.51;entryY=1.025;entryDx=0;entryDy=0;entryPerimeter=0;" edge="1" parent="1" source="8q_IShLXz2TqyMJP6I94-123" target="8q_IShLXz2TqyMJP6I94-171">
          <mxGeometry width="50" height="50" relative="1" as="geometry">
            <mxPoint x="-1864" y="-527" as="sourcePoint" />
            <mxPoint x="-2091" y="-674" as="targetPoint" />
          </mxGeometry>
        </mxCell>
        <mxCell id="8q_IShLXz2TqyMJP6I94-236" value="" style="endArrow=classic;html=1;rounded=0;" edge="1" parent="1" source="8q_IShLXz2TqyMJP6I94-123" target="8q_IShLXz2TqyMJP6I94-177">
          <mxGeometry width="50" height="50" relative="1" as="geometry">
            <mxPoint x="-1845" y="-536" as="sourcePoint" />
            <mxPoint x="-1958" y="-669" as="targetPoint" />
          </mxGeometry>
        </mxCell>
        <mxCell id="8q_IShLXz2TqyMJP6I94-237" value="" style="endArrow=classic;html=1;rounded=0;" edge="1" parent="1" source="8q_IShLXz2TqyMJP6I94-137" target="8q_IShLXz2TqyMJP6I94-179">
          <mxGeometry width="50" height="50" relative="1" as="geometry">
            <mxPoint x="-2035" y="12" as="sourcePoint" />
            <mxPoint x="-1985" y="-38" as="targetPoint" />
          </mxGeometry>
        </mxCell>
        <mxCell id="8q_IShLXz2TqyMJP6I94-238" value="" style="endArrow=classic;html=1;rounded=0;" edge="1" parent="1" source="8q_IShLXz2TqyMJP6I94-137" target="8q_IShLXz2TqyMJP6I94-178">
          <mxGeometry width="50" height="50" relative="1" as="geometry">
            <mxPoint x="-2026" y="-43" as="sourcePoint" />
            <mxPoint x="-2058" y="38" as="targetPoint" />
          </mxGeometry>
        </mxCell>
        <mxCell id="8q_IShLXz2TqyMJP6I94-239" value="" style="endArrow=classic;html=1;rounded=0;" edge="1" parent="1" source="8q_IShLXz2TqyMJP6I94-137" target="8q_IShLXz2TqyMJP6I94-180">
          <mxGeometry width="50" height="50" relative="1" as="geometry">
            <mxPoint x="-1984" y="-47" as="sourcePoint" />
            <mxPoint x="-1968" y="45" as="targetPoint" />
          </mxGeometry>
        </mxCell>
        <mxCell id="8q_IShLXz2TqyMJP6I94-240" value="" style="endArrow=classic;html=1;rounded=0;" edge="1" parent="1" source="8q_IShLXz2TqyMJP6I94-137" target="8q_IShLXz2TqyMJP6I94-181">
          <mxGeometry width="50" height="50" relative="1" as="geometry">
            <mxPoint x="-2060" y="-50" as="sourcePoint" />
            <mxPoint x="-2115" y="1" as="targetPoint" />
          </mxGeometry>
        </mxCell>
        <mxCell id="8q_IShLXz2TqyMJP6I94-241" value="" style="endArrow=classic;html=1;rounded=0;" edge="1" parent="1" source="8q_IShLXz2TqyMJP6I94-136" target="8q_IShLXz2TqyMJP6I94-183">
          <mxGeometry width="50" height="50" relative="1" as="geometry">
            <mxPoint x="-1679" y="5" as="sourcePoint" />
            <mxPoint x="-1629" y="-45" as="targetPoint" />
          </mxGeometry>
        </mxCell>
        <mxCell id="8q_IShLXz2TqyMJP6I94-242" value="" style="endArrow=classic;html=1;rounded=0;" edge="1" parent="1" source="8q_IShLXz2TqyMJP6I94-136" target="8q_IShLXz2TqyMJP6I94-182">
          <mxGeometry width="50" height="50" relative="1" as="geometry">
            <mxPoint x="-1533" y="-33" as="sourcePoint" />
            <mxPoint x="-1662" y="-47" as="targetPoint" />
          </mxGeometry>
        </mxCell>
        <mxCell id="8q_IShLXz2TqyMJP6I94-243" value="" style="endArrow=classic;html=1;rounded=0;" edge="1" parent="1" source="8q_IShLXz2TqyMJP6I94-136" target="8q_IShLXz2TqyMJP6I94-185">
          <mxGeometry width="50" height="50" relative="1" as="geometry">
            <mxPoint x="-1533" y="-21" as="sourcePoint" />
            <mxPoint x="-1708" y="-3" as="targetPoint" />
          </mxGeometry>
        </mxCell>
        <mxCell id="8q_IShLXz2TqyMJP6I94-244" value="" style="endArrow=classic;html=1;rounded=0;" edge="1" parent="1" source="8q_IShLXz2TqyMJP6I94-136" target="8q_IShLXz2TqyMJP6I94-186">
          <mxGeometry width="50" height="50" relative="1" as="geometry">
            <mxPoint x="-1533" y="-3" as="sourcePoint" />
            <mxPoint x="-1654" y="46" as="targetPoint" />
          </mxGeometry>
        </mxCell>
        <mxCell id="8q_IShLXz2TqyMJP6I94-245" value="" style="endArrow=classic;html=1;rounded=0;" edge="1" parent="1" source="8q_IShLXz2TqyMJP6I94-136" target="8q_IShLXz2TqyMJP6I94-184">
          <mxGeometry width="50" height="50" relative="1" as="geometry">
            <mxPoint x="-1525" y="-36" as="sourcePoint" />
            <mxPoint x="-1661" y="-48" as="targetPoint" />
          </mxGeometry>
        </mxCell>
        <mxCell id="8q_IShLXz2TqyMJP6I94-246" value="" style="endArrow=classic;html=1;rounded=0;" edge="1" parent="1" source="8q_IShLXz2TqyMJP6I94-139" target="8q_IShLXz2TqyMJP6I94-228">
          <mxGeometry width="50" height="50" relative="1" as="geometry">
            <mxPoint x="-1393" y="722" as="sourcePoint" />
            <mxPoint x="-1343" y="672" as="targetPoint" />
          </mxGeometry>
        </mxCell>
        <mxCell id="8q_IShLXz2TqyMJP6I94-247" value="" style="endArrow=classic;html=1;rounded=0;" edge="1" parent="1" source="8q_IShLXz2TqyMJP6I94-139" target="8q_IShLXz2TqyMJP6I94-224">
          <mxGeometry width="50" height="50" relative="1" as="geometry">
            <mxPoint x="-1383" y="732" as="sourcePoint" />
            <mxPoint x="-1333" y="682" as="targetPoint" />
          </mxGeometry>
        </mxCell>
        <mxCell id="8q_IShLXz2TqyMJP6I94-248" value="" style="endArrow=classic;html=1;rounded=0;" edge="1" parent="1" source="8q_IShLXz2TqyMJP6I94-139" target="8q_IShLXz2TqyMJP6I94-227">
          <mxGeometry width="50" height="50" relative="1" as="geometry">
            <mxPoint x="-1373" y="742" as="sourcePoint" />
            <mxPoint x="-1323" y="692" as="targetPoint" />
          </mxGeometry>
        </mxCell>
        <mxCell id="8q_IShLXz2TqyMJP6I94-249" value="" style="endArrow=classic;html=1;rounded=0;" edge="1" parent="1" source="8q_IShLXz2TqyMJP6I94-139" target="8q_IShLXz2TqyMJP6I94-226">
          <mxGeometry width="50" height="50" relative="1" as="geometry">
            <mxPoint x="-1363" y="752" as="sourcePoint" />
            <mxPoint x="-1313" y="702" as="targetPoint" />
          </mxGeometry>
        </mxCell>
        <mxCell id="8q_IShLXz2TqyMJP6I94-250" value="" style="endArrow=classic;html=1;rounded=0;" edge="1" parent="1" source="8q_IShLXz2TqyMJP6I94-139" target="8q_IShLXz2TqyMJP6I94-225">
          <mxGeometry width="50" height="50" relative="1" as="geometry">
            <mxPoint x="-1353" y="762" as="sourcePoint" />
            <mxPoint x="-1303" y="712" as="targetPoint" />
          </mxGeometry>
        </mxCell>
        <mxCell id="8q_IShLXz2TqyMJP6I94-251" value="" style="endArrow=classic;html=1;rounded=0;" edge="1" parent="1" source="8q_IShLXz2TqyMJP6I94-141" target="8q_IShLXz2TqyMJP6I94-187">
          <mxGeometry width="50" height="50" relative="1" as="geometry">
            <mxPoint x="-1330" y="406" as="sourcePoint" />
            <mxPoint x="-1280" y="356" as="targetPoint" />
          </mxGeometry>
        </mxCell>
        <mxCell id="8q_IShLXz2TqyMJP6I94-252" value="" style="endArrow=classic;html=1;rounded=0;" edge="1" parent="1" source="8q_IShLXz2TqyMJP6I94-141" target="8q_IShLXz2TqyMJP6I94-188">
          <mxGeometry width="50" height="50" relative="1" as="geometry">
            <mxPoint x="-1320" y="416" as="sourcePoint" />
            <mxPoint x="-1270" y="366" as="targetPoint" />
          </mxGeometry>
        </mxCell>
        <mxCell id="8q_IShLXz2TqyMJP6I94-253" value="" style="endArrow=classic;html=1;rounded=0;" edge="1" parent="1" source="8q_IShLXz2TqyMJP6I94-141" target="8q_IShLXz2TqyMJP6I94-190">
          <mxGeometry width="50" height="50" relative="1" as="geometry">
            <mxPoint x="-1310" y="426" as="sourcePoint" />
            <mxPoint x="-1260" y="376" as="targetPoint" />
          </mxGeometry>
        </mxCell>
        <mxCell id="8q_IShLXz2TqyMJP6I94-254" value="" style="endArrow=classic;html=1;rounded=0;" edge="1" parent="1" source="8q_IShLXz2TqyMJP6I94-141" target="8q_IShLXz2TqyMJP6I94-191">
          <mxGeometry width="50" height="50" relative="1" as="geometry">
            <mxPoint x="-1300" y="436" as="sourcePoint" />
            <mxPoint x="-1250" y="386" as="targetPoint" />
          </mxGeometry>
        </mxCell>
        <mxCell id="8q_IShLXz2TqyMJP6I94-255" value="" style="endArrow=classic;html=1;rounded=0;" edge="1" parent="1" source="8q_IShLXz2TqyMJP6I94-141" target="8q_IShLXz2TqyMJP6I94-189">
          <mxGeometry width="50" height="50" relative="1" as="geometry">
            <mxPoint x="-1290" y="446" as="sourcePoint" />
            <mxPoint x="-1240" y="396" as="targetPoint" />
          </mxGeometry>
        </mxCell>
        <mxCell id="8q_IShLXz2TqyMJP6I94-256" value="" style="endArrow=classic;html=1;rounded=0;" edge="1" parent="1" source="8q_IShLXz2TqyMJP6I94-142" target="8q_IShLXz2TqyMJP6I94-194">
          <mxGeometry width="50" height="50" relative="1" as="geometry">
            <mxPoint x="-1330" y="-234" as="sourcePoint" />
            <mxPoint x="-1280" y="-284" as="targetPoint" />
            <Array as="points">
              <mxPoint x="-1334" y="-215" />
            </Array>
          </mxGeometry>
        </mxCell>
        <mxCell id="8q_IShLXz2TqyMJP6I94-257" value="" style="endArrow=classic;html=1;rounded=0;" edge="1" parent="1" source="8q_IShLXz2TqyMJP6I94-142" target="8q_IShLXz2TqyMJP6I94-195">
          <mxGeometry width="50" height="50" relative="1" as="geometry">
            <mxPoint x="-1320" y="-224" as="sourcePoint" />
            <mxPoint x="-1270" y="-274" as="targetPoint" />
          </mxGeometry>
        </mxCell>
        <mxCell id="8q_IShLXz2TqyMJP6I94-258" value="" style="endArrow=classic;html=1;rounded=0;" edge="1" parent="1" source="8q_IShLXz2TqyMJP6I94-142" target="8q_IShLXz2TqyMJP6I94-192">
          <mxGeometry width="50" height="50" relative="1" as="geometry">
            <mxPoint x="-1310" y="-214" as="sourcePoint" />
            <mxPoint x="-1260" y="-264" as="targetPoint" />
          </mxGeometry>
        </mxCell>
        <mxCell id="8q_IShLXz2TqyMJP6I94-259" value="" style="endArrow=classic;html=1;rounded=0;" edge="1" parent="1" source="8q_IShLXz2TqyMJP6I94-142" target="8q_IShLXz2TqyMJP6I94-193">
          <mxGeometry width="50" height="50" relative="1" as="geometry">
            <mxPoint x="-1300" y="-204" as="sourcePoint" />
            <mxPoint x="-1250" y="-254" as="targetPoint" />
          </mxGeometry>
        </mxCell>
        <mxCell id="8q_IShLXz2TqyMJP6I94-260" value="" style="endArrow=classic;html=1;rounded=0;" edge="1" parent="1" source="8q_IShLXz2TqyMJP6I94-142" target="8q_IShLXz2TqyMJP6I94-196">
          <mxGeometry width="50" height="50" relative="1" as="geometry">
            <mxPoint x="-1290" y="-194" as="sourcePoint" />
            <mxPoint x="-1240" y="-244" as="targetPoint" />
          </mxGeometry>
        </mxCell>
        <mxCell id="8q_IShLXz2TqyMJP6I94-261" value="" style="endArrow=classic;html=1;rounded=0;" edge="1" parent="1" source="8q_IShLXz2TqyMJP6I94-129" target="8q_IShLXz2TqyMJP6I94-221">
          <mxGeometry width="50" height="50" relative="1" as="geometry">
            <mxPoint x="-1617" y="-712" as="sourcePoint" />
            <mxPoint x="-1567" y="-762" as="targetPoint" />
          </mxGeometry>
        </mxCell>
        <mxCell id="8q_IShLXz2TqyMJP6I94-262" value="" style="endArrow=classic;html=1;rounded=0;" edge="1" parent="1" source="8q_IShLXz2TqyMJP6I94-129" target="8q_IShLXz2TqyMJP6I94-222">
          <mxGeometry width="50" height="50" relative="1" as="geometry">
            <mxPoint x="-1607" y="-702" as="sourcePoint" />
            <mxPoint x="-1557" y="-752" as="targetPoint" />
          </mxGeometry>
        </mxCell>
        <mxCell id="8q_IShLXz2TqyMJP6I94-263" value="" style="endArrow=classic;html=1;rounded=0;" edge="1" parent="1" source="8q_IShLXz2TqyMJP6I94-129" target="8q_IShLXz2TqyMJP6I94-223">
          <mxGeometry width="50" height="50" relative="1" as="geometry">
            <mxPoint x="-1391" y="-849" as="sourcePoint" />
            <mxPoint x="-1547" y="-742" as="targetPoint" />
          </mxGeometry>
        </mxCell>
        <mxCell id="8q_IShLXz2TqyMJP6I94-264" value="" style="endArrow=classic;html=1;rounded=0;" edge="1" parent="1" source="8q_IShLXz2TqyMJP6I94-129" target="8q_IShLXz2TqyMJP6I94-220">
          <mxGeometry width="50" height="50" relative="1" as="geometry">
            <mxPoint x="-1587" y="-682" as="sourcePoint" />
            <mxPoint x="-1537" y="-732" as="targetPoint" />
          </mxGeometry>
        </mxCell>
        <mxCell id="8q_IShLXz2TqyMJP6I94-265" value="" style="endArrow=classic;html=1;rounded=0;" edge="1" parent="1" source="8q_IShLXz2TqyMJP6I94-145" target="8q_IShLXz2TqyMJP6I94-207">
          <mxGeometry width="50" height="50" relative="1" as="geometry">
            <mxPoint x="-463" y="301" as="sourcePoint" />
            <mxPoint x="-413" y="251" as="targetPoint" />
          </mxGeometry>
        </mxCell>
        <mxCell id="8q_IShLXz2TqyMJP6I94-266" value="" style="endArrow=classic;html=1;rounded=0;" edge="1" parent="1" source="8q_IShLXz2TqyMJP6I94-145" target="8q_IShLXz2TqyMJP6I94-208">
          <mxGeometry width="50" height="50" relative="1" as="geometry">
            <mxPoint x="-453" y="311" as="sourcePoint" />
            <mxPoint x="-403" y="261" as="targetPoint" />
          </mxGeometry>
        </mxCell>
        <mxCell id="8q_IShLXz2TqyMJP6I94-267" value="" style="endArrow=classic;html=1;rounded=0;" edge="1" parent="1" source="8q_IShLXz2TqyMJP6I94-145" target="8q_IShLXz2TqyMJP6I94-210">
          <mxGeometry width="50" height="50" relative="1" as="geometry">
            <mxPoint x="-443" y="321" as="sourcePoint" />
            <mxPoint x="-393" y="271" as="targetPoint" />
          </mxGeometry>
        </mxCell>
        <mxCell id="8q_IShLXz2TqyMJP6I94-268" value="" style="endArrow=classic;html=1;rounded=0;" edge="1" parent="1" source="8q_IShLXz2TqyMJP6I94-145" target="8q_IShLXz2TqyMJP6I94-209">
          <mxGeometry width="50" height="50" relative="1" as="geometry">
            <mxPoint x="-433" y="331" as="sourcePoint" />
            <mxPoint x="-383" y="281" as="targetPoint" />
          </mxGeometry>
        </mxCell>
        <mxCell id="8q_IShLXz2TqyMJP6I94-269" value="" style="endArrow=classic;html=1;rounded=0;" edge="1" parent="1" source="8q_IShLXz2TqyMJP6I94-145" target="8q_IShLXz2TqyMJP6I94-211">
          <mxGeometry width="50" height="50" relative="1" as="geometry">
            <mxPoint x="-423" y="341" as="sourcePoint" />
            <mxPoint x="-373" y="291" as="targetPoint" />
          </mxGeometry>
        </mxCell>
        <mxCell id="8q_IShLXz2TqyMJP6I94-270" value="" style="endArrow=classic;html=1;rounded=0;" edge="1" parent="1" source="8q_IShLXz2TqyMJP6I94-143" target="8q_IShLXz2TqyMJP6I94-213">
          <mxGeometry width="50" height="50" relative="1" as="geometry">
            <mxPoint x="-296" y="-56" as="sourcePoint" />
            <mxPoint x="-246" y="-106" as="targetPoint" />
          </mxGeometry>
        </mxCell>
        <mxCell id="8q_IShLXz2TqyMJP6I94-271" value="" style="endArrow=classic;html=1;rounded=0;" edge="1" parent="1" source="8q_IShLXz2TqyMJP6I94-143" target="8q_IShLXz2TqyMJP6I94-212">
          <mxGeometry width="50" height="50" relative="1" as="geometry">
            <mxPoint x="-286" y="-46" as="sourcePoint" />
            <mxPoint x="-236" y="-96" as="targetPoint" />
          </mxGeometry>
        </mxCell>
        <mxCell id="8q_IShLXz2TqyMJP6I94-272" value="" style="endArrow=classic;html=1;rounded=0;" edge="1" parent="1" source="8q_IShLXz2TqyMJP6I94-143" target="8q_IShLXz2TqyMJP6I94-216">
          <mxGeometry width="50" height="50" relative="1" as="geometry">
            <mxPoint x="-276" y="-36" as="sourcePoint" />
            <mxPoint x="-226" y="-86" as="targetPoint" />
          </mxGeometry>
        </mxCell>
        <mxCell id="8q_IShLXz2TqyMJP6I94-273" value="" style="endArrow=classic;html=1;rounded=0;" edge="1" parent="1" source="8q_IShLXz2TqyMJP6I94-143" target="8q_IShLXz2TqyMJP6I94-215">
          <mxGeometry width="50" height="50" relative="1" as="geometry">
            <mxPoint x="-736" y="-96.00382198952866" as="sourcePoint" />
            <mxPoint x="-414" y="-69.02999999999997" as="targetPoint" />
          </mxGeometry>
        </mxCell>
        <mxCell id="8q_IShLXz2TqyMJP6I94-274" value="" style="endArrow=classic;html=1;rounded=0;" edge="1" parent="1" source="8q_IShLXz2TqyMJP6I94-143" target="8q_IShLXz2TqyMJP6I94-214">
          <mxGeometry width="50" height="50" relative="1" as="geometry">
            <mxPoint x="-256" y="-16" as="sourcePoint" />
            <mxPoint x="-206" y="-66" as="targetPoint" />
          </mxGeometry>
        </mxCell>
        <mxCell id="8q_IShLXz2TqyMJP6I94-275" value="" style="endArrow=classic;html=1;rounded=0;" edge="1" parent="1" source="8q_IShLXz2TqyMJP6I94-134" target="8q_IShLXz2TqyMJP6I94-219">
          <mxGeometry width="50" height="50" relative="1" as="geometry">
            <mxPoint x="-1012" y="-552" as="sourcePoint" />
            <mxPoint x="-962" y="-602" as="targetPoint" />
          </mxGeometry>
        </mxCell>
        <mxCell id="8q_IShLXz2TqyMJP6I94-276" value="" style="endArrow=classic;html=1;rounded=0;" edge="1" parent="1" source="8q_IShLXz2TqyMJP6I94-134" target="8q_IShLXz2TqyMJP6I94-218">
          <mxGeometry width="50" height="50" relative="1" as="geometry">
            <mxPoint x="-1002" y="-542" as="sourcePoint" />
            <mxPoint x="-952" y="-592" as="targetPoint" />
          </mxGeometry>
        </mxCell>
        <mxCell id="8q_IShLXz2TqyMJP6I94-277" value="" style="endArrow=classic;html=1;rounded=0;" edge="1" parent="1" source="8q_IShLXz2TqyMJP6I94-134" target="8q_IShLXz2TqyMJP6I94-217">
          <mxGeometry width="50" height="50" relative="1" as="geometry">
            <mxPoint x="-992" y="-532" as="sourcePoint" />
            <mxPoint x="-942" y="-582" as="targetPoint" />
          </mxGeometry>
        </mxCell>
        <mxCell id="8q_IShLXz2TqyMJP6I94-278" value="" style="endArrow=classic;html=1;rounded=0;" edge="1" parent="1" source="8q_IShLXz2TqyMJP6I94-130" target="8q_IShLXz2TqyMJP6I94-198">
          <mxGeometry width="50" height="50" relative="1" as="geometry">
            <mxPoint x="-954" y="-900" as="sourcePoint" />
            <mxPoint x="-904" y="-950" as="targetPoint" />
          </mxGeometry>
        </mxCell>
        <mxCell id="8q_IShLXz2TqyMJP6I94-279" value="" style="endArrow=classic;html=1;rounded=0;" edge="1" parent="1" source="8q_IShLXz2TqyMJP6I94-130" target="8q_IShLXz2TqyMJP6I94-199">
          <mxGeometry width="50" height="50" relative="1" as="geometry">
            <mxPoint x="-944" y="-890" as="sourcePoint" />
            <mxPoint x="-894" y="-940" as="targetPoint" />
          </mxGeometry>
        </mxCell>
        <mxCell id="8q_IShLXz2TqyMJP6I94-280" value="" style="endArrow=classic;html=1;rounded=0;" edge="1" parent="1" source="8q_IShLXz2TqyMJP6I94-130" target="8q_IShLXz2TqyMJP6I94-197">
          <mxGeometry width="50" height="50" relative="1" as="geometry">
            <mxPoint x="-934" y="-880" as="sourcePoint" />
            <mxPoint x="-884" y="-930" as="targetPoint" />
          </mxGeometry>
        </mxCell>
        <mxCell id="8q_IShLXz2TqyMJP6I94-281" value="" style="endArrow=classic;html=1;rounded=0;" edge="1" parent="1" source="8q_IShLXz2TqyMJP6I94-130" target="8q_IShLXz2TqyMJP6I94-200">
          <mxGeometry width="50" height="50" relative="1" as="geometry">
            <mxPoint x="-924" y="-870" as="sourcePoint" />
            <mxPoint x="-874" y="-920" as="targetPoint" />
          </mxGeometry>
        </mxCell>
        <mxCell id="8q_IShLXz2TqyMJP6I94-282" value="" style="endArrow=classic;html=1;rounded=0;" edge="1" parent="1" source="8q_IShLXz2TqyMJP6I94-132" target="8q_IShLXz2TqyMJP6I94-202">
          <mxGeometry width="50" height="50" relative="1" as="geometry">
            <mxPoint x="-620" y="-566" as="sourcePoint" />
            <mxPoint x="-570" y="-616" as="targetPoint" />
          </mxGeometry>
        </mxCell>
        <mxCell id="8q_IShLXz2TqyMJP6I94-283" value="" style="endArrow=classic;html=1;rounded=0;" edge="1" parent="1" source="8q_IShLXz2TqyMJP6I94-132" target="8q_IShLXz2TqyMJP6I94-201">
          <mxGeometry width="50" height="50" relative="1" as="geometry">
            <mxPoint x="-610" y="-556" as="sourcePoint" />
            <mxPoint x="-560" y="-606" as="targetPoint" />
          </mxGeometry>
        </mxCell>
        <mxCell id="8q_IShLXz2TqyMJP6I94-284" value="" style="endArrow=classic;html=1;rounded=0;" edge="1" parent="1" source="8q_IShLXz2TqyMJP6I94-132" target="8q_IShLXz2TqyMJP6I94-205">
          <mxGeometry width="50" height="50" relative="1" as="geometry">
            <mxPoint x="-600" y="-546" as="sourcePoint" />
            <mxPoint x="-550" y="-596" as="targetPoint" />
          </mxGeometry>
        </mxCell>
        <mxCell id="8q_IShLXz2TqyMJP6I94-285" value="" style="endArrow=classic;html=1;rounded=0;" edge="1" parent="1" source="8q_IShLXz2TqyMJP6I94-132" target="8q_IShLXz2TqyMJP6I94-204">
          <mxGeometry width="50" height="50" relative="1" as="geometry">
            <mxPoint x="-590" y="-536" as="sourcePoint" />
            <mxPoint x="-540" y="-586" as="targetPoint" />
          </mxGeometry>
        </mxCell>
        <mxCell id="8q_IShLXz2TqyMJP6I94-286" value="" style="endArrow=classic;html=1;rounded=0;" edge="1" parent="1" source="8q_IShLXz2TqyMJP6I94-132" target="8q_IShLXz2TqyMJP6I94-203">
          <mxGeometry width="50" height="50" relative="1" as="geometry">
            <mxPoint x="-580" y="-526" as="sourcePoint" />
            <mxPoint x="-530" y="-576" as="targetPoint" />
          </mxGeometry>
        </mxCell>
        <mxCell id="8q_IShLXz2TqyMJP6I94-287" value="" style="endArrow=classic;html=1;rounded=0;" edge="1" parent="1" source="8q_IShLXz2TqyMJP6I94-132" target="8q_IShLXz2TqyMJP6I94-206">
          <mxGeometry width="50" height="50" relative="1" as="geometry">
            <mxPoint x="-570" y="-516" as="sourcePoint" />
            <mxPoint x="-520" y="-566" as="targetPoint" />
          </mxGeometry>
        </mxCell>
        <mxCell id="8q_IShLXz2TqyMJP6I94-288" value="admin" style="rounded=0;whiteSpace=wrap;html=1;" vertex="1" parent="1">
          <mxGeometry x="-2690" y="-491" width="120" height="60" as="geometry" />
        </mxCell>
        <mxCell id="8q_IShLXz2TqyMJP6I94-289" value="" style="endArrow=none;html=1;rounded=0;" edge="1" parent="1" source="8q_IShLXz2TqyMJP6I94-291" target="8q_IShLXz2TqyMJP6I94-290">
          <mxGeometry width="50" height="50" relative="1" as="geometry">
            <mxPoint x="-2100" y="-370" as="sourcePoint" />
            <mxPoint x="-2050" y="-420" as="targetPoint" />
          </mxGeometry>
        </mxCell>
        <mxCell id="8q_IShLXz2TqyMJP6I94-290" value="website" style="rounded=0;whiteSpace=wrap;html=1;" vertex="1" parent="1">
          <mxGeometry x="-2259" y="-490" width="120" height="60" as="geometry" />
        </mxCell>
        <mxCell id="8q_IShLXz2TqyMJP6I94-292" value="" style="endArrow=none;html=1;rounded=0;" edge="1" parent="1" source="8q_IShLXz2TqyMJP6I94-288" target="8q_IShLXz2TqyMJP6I94-291">
          <mxGeometry width="50" height="50" relative="1" as="geometry">
            <mxPoint x="-2570" y="-461" as="sourcePoint" />
            <mxPoint x="-2296" y="-461" as="targetPoint" />
          </mxGeometry>
        </mxCell>
        <mxCell id="8q_IShLXz2TqyMJP6I94-291" value="manages" style="rhombus;whiteSpace=wrap;html=1;" vertex="1" parent="1">
          <mxGeometry x="-2460" y="-501" width="80" height="80" as="geometry" />
        </mxCell>
        <mxCell id="8q_IShLXz2TqyMJP6I94-293" value="" style="endArrow=none;html=1;rounded=0;" edge="1" parent="1" source="8q_IShLXz2TqyMJP6I94-294" target="8q_IShLXz2TqyMJP6I94-123">
          <mxGeometry width="50" height="50" relative="1" as="geometry">
            <mxPoint x="-2100" y="-370" as="sourcePoint" />
            <mxPoint x="-2050" y="-420" as="targetPoint" />
          </mxGeometry>
        </mxCell>
        <mxCell id="8q_IShLXz2TqyMJP6I94-295" value="" style="endArrow=none;html=1;rounded=0;" edge="1" parent="1" source="8q_IShLXz2TqyMJP6I94-290" target="8q_IShLXz2TqyMJP6I94-294">
          <mxGeometry width="50" height="50" relative="1" as="geometry">
            <mxPoint x="-2141" y="-490" as="sourcePoint" />
            <mxPoint x="-1918" y="-604" as="targetPoint" />
          </mxGeometry>
        </mxCell>
        <mxCell id="8q_IShLXz2TqyMJP6I94-294" value="has" style="rhombus;whiteSpace=wrap;html=1;" vertex="1" parent="1">
          <mxGeometry x="-2060" y="-576" width="80" height="80" as="geometry" />
        </mxCell>
        <mxCell id="8q_IShLXz2TqyMJP6I94-296" value="name" style="ellipse;whiteSpace=wrap;html=1;align=center;" vertex="1" parent="1">
          <mxGeometry x="-2228" y="-300" width="100" height="40" as="geometry" />
        </mxCell>
        <mxCell id="8q_IShLXz2TqyMJP6I94-297" value="url" style="ellipse;whiteSpace=wrap;html=1;align=center;" vertex="1" parent="1">
          <mxGeometry x="-2340" y="-320" width="100" height="40" as="geometry" />
        </mxCell>
        <mxCell id="8q_IShLXz2TqyMJP6I94-298" value="domain name" style="ellipse;whiteSpace=wrap;html=1;align=center;" vertex="1" parent="1">
          <mxGeometry x="-2410" y="-366" width="100" height="40" as="geometry" />
        </mxCell>
        <mxCell id="8q_IShLXz2TqyMJP6I94-300" value="" style="endArrow=classic;html=1;rounded=0;" edge="1" parent="1" source="8q_IShLXz2TqyMJP6I94-290" target="8q_IShLXz2TqyMJP6I94-296">
          <mxGeometry width="50" height="50" relative="1" as="geometry">
            <mxPoint x="-2090" y="-330" as="sourcePoint" />
            <mxPoint x="-2040" y="-380" as="targetPoint" />
          </mxGeometry>
        </mxCell>
        <mxCell id="8q_IShLXz2TqyMJP6I94-301" value="" style="endArrow=classic;html=1;rounded=0;" edge="1" parent="1" source="8q_IShLXz2TqyMJP6I94-290" target="8q_IShLXz2TqyMJP6I94-297">
          <mxGeometry width="50" height="50" relative="1" as="geometry">
            <mxPoint x="-2090" y="-330" as="sourcePoint" />
            <mxPoint x="-2040" y="-380" as="targetPoint" />
          </mxGeometry>
        </mxCell>
        <mxCell id="8q_IShLXz2TqyMJP6I94-302" value="" style="endArrow=classic;html=1;rounded=0;" edge="1" parent="1" source="8q_IShLXz2TqyMJP6I94-290" target="8q_IShLXz2TqyMJP6I94-298">
          <mxGeometry width="50" height="50" relative="1" as="geometry">
            <mxPoint x="-2090" y="-330" as="sourcePoint" />
            <mxPoint x="-2040" y="-380" as="targetPoint" />
          </mxGeometry>
        </mxCell>
        <mxCell id="8q_IShLXz2TqyMJP6I94-303" value="" style="endArrow=classic;html=1;rounded=0;" edge="1" parent="1" source="8q_IShLXz2TqyMJP6I94-290" target="8q_IShLXz2TqyMJP6I94-304">
          <mxGeometry width="50" height="50" relative="1" as="geometry">
            <mxPoint x="-2100" y="-370" as="sourcePoint" />
            <mxPoint x="-2110" y="-340" as="targetPoint" />
          </mxGeometry>
        </mxCell>
        <mxCell id="8q_IShLXz2TqyMJP6I94-304" value="launch date" style="ellipse;whiteSpace=wrap;html=1;align=center;" vertex="1" parent="1">
          <mxGeometry x="-2149" y="-350" width="100" height="40" as="geometry" />
        </mxCell>
        <mxCell id="8q_IShLXz2TqyMJP6I94-305" value="ip address" style="ellipse;whiteSpace=wrap;html=1;align=center;" vertex="1" parent="1">
          <mxGeometry x="-2100" y="-406" width="100" height="40" as="geometry" />
        </mxCell>
        <mxCell id="8q_IShLXz2TqyMJP6I94-306" value="" style="endArrow=classic;html=1;rounded=0;" edge="1" parent="1" source="8q_IShLXz2TqyMJP6I94-290" target="8q_IShLXz2TqyMJP6I94-305">
          <mxGeometry width="50" height="50" relative="1" as="geometry">
            <mxPoint x="-2090" y="-330" as="sourcePoint" />
            <mxPoint x="-2040" y="-380" as="targetPoint" />
          </mxGeometry>
        </mxCell>
        <mxCell id="8q_IShLXz2TqyMJP6I94-310" value="" style="endArrow=classic;html=1;rounded=0;" edge="1" parent="1" source="8q_IShLXz2TqyMJP6I94-316">
          <mxGeometry width="50" height="50" relative="1" as="geometry">
            <mxPoint x="-2480" y="-440" as="sourcePoint" />
            <mxPoint x="-2750" y="-530" as="targetPoint" />
          </mxGeometry>
        </mxCell>
        <mxCell id="8q_IShLXz2TqyMJP6I94-320" value="" style="endArrow=classic;html=1;rounded=0;" edge="1" parent="1" source="8q_IShLXz2TqyMJP6I94-288" target="8q_IShLXz2TqyMJP6I94-319">
          <mxGeometry width="50" height="50" relative="1" as="geometry">
            <mxPoint x="-2625" y="-431" as="sourcePoint" />
            <mxPoint x="-2610" y="-350" as="targetPoint" />
          </mxGeometry>
        </mxCell>
        <mxCell id="8q_IShLXz2TqyMJP6I94-319" value="mail" style="ellipse;whiteSpace=wrap;html=1;align=center;" vertex="1" parent="1">
          <mxGeometry x="-2780" y="-328" width="100" height="40" as="geometry" />
        </mxCell>
        <mxCell id="8q_IShLXz2TqyMJP6I94-321" value="" style="endArrow=classic;html=1;rounded=0;" edge="1" parent="1" source="8q_IShLXz2TqyMJP6I94-288" target="8q_IShLXz2TqyMJP6I94-317">
          <mxGeometry width="50" height="50" relative="1" as="geometry">
            <mxPoint x="-2690" y="-461" as="sourcePoint" />
            <mxPoint x="-2760" y="-460" as="targetPoint" />
          </mxGeometry>
        </mxCell>
        <mxCell id="8q_IShLXz2TqyMJP6I94-317" value="username" style="ellipse;whiteSpace=wrap;html=1;align=center;" vertex="1" parent="1">
          <mxGeometry x="-2910" y="-470" width="100" height="40" as="geometry" />
        </mxCell>
        <mxCell id="8q_IShLXz2TqyMJP6I94-322" value="" style="endArrow=classic;html=1;rounded=0;" edge="1" parent="1" source="8q_IShLXz2TqyMJP6I94-288" target="8q_IShLXz2TqyMJP6I94-316">
          <mxGeometry width="50" height="50" relative="1" as="geometry">
            <mxPoint x="-2682" y="-491" as="sourcePoint" />
            <mxPoint x="-2750" y="-530" as="targetPoint" />
          </mxGeometry>
        </mxCell>
        <mxCell id="8q_IShLXz2TqyMJP6I94-316" value="admin-id" style="ellipse;whiteSpace=wrap;html=1;align=center;" vertex="1" parent="1">
          <mxGeometry x="-2820" y="-556" width="100" height="40" as="geometry" />
        </mxCell>
        <mxCell id="8q_IShLXz2TqyMJP6I94-325" value="" style="endArrow=classic;html=1;rounded=0;" edge="1" parent="1" source="8q_IShLXz2TqyMJP6I94-288" target="8q_IShLXz2TqyMJP6I94-318">
          <mxGeometry width="50" height="50" relative="1" as="geometry">
            <mxPoint x="-2663" y="-431" as="sourcePoint" />
            <mxPoint x="-2730" y="-370" as="targetPoint" />
          </mxGeometry>
        </mxCell>
        <mxCell id="8q_IShLXz2TqyMJP6I94-318" value="password" style="ellipse;whiteSpace=wrap;html=1;align=center;" vertex="1" parent="1">
          <mxGeometry x="-2890" y="-366" width="100" height="40" as="geometry" />
        </mxCell>
        <mxCell id="G5WnJOHrlY7KE8kOx_eK-1" value="total_price" style="ellipse;whiteSpace=wrap;html=1;" vertex="1" parent="1">
          <mxGeometry x="-680" y="180" width="90" height="40" as="geometry" />
        </mxCell>
        <mxCell id="G5WnJOHrlY7KE8kOx_eK-2" value="" style="endArrow=classic;html=1;rounded=0;exitX=0;exitY=0.5;exitDx=0;exitDy=0;" edge="1" parent="1" source="8q_IShLXz2TqyMJP6I94-145" target="G5WnJOHrlY7KE8kOx_eK-1">
          <mxGeometry width="50" height="50" relative="1" as="geometry">
            <mxPoint x="-380" y="320" as="sourcePoint" />
            <mxPoint x="-330" y="270" as="targetPoint" />
          </mxGeometry>
        </mxCell>
        <mxCell id="G5WnJOHrlY7KE8kOx_eK-3" value="email_id" style="ellipse;whiteSpace=wrap;html=1;" vertex="1" parent="1">
          <mxGeometry x="-712" y="-895" width="100" height="40" as="geometry" />
        </mxCell>
        <mxCell id="G5WnJOHrlY7KE8kOx_eK-4" value="" style="endArrow=classic;html=1;rounded=0;exitX=1;exitY=0.25;exitDx=0;exitDy=0;entryX=0;entryY=1;entryDx=0;entryDy=0;" edge="1" parent="1" source="8q_IShLXz2TqyMJP6I94-130" target="G5WnJOHrlY7KE8kOx_eK-3">
          <mxGeometry width="50" height="50" relative="1" as="geometry">
            <mxPoint x="-620" y="-890" as="sourcePoint" />
            <mxPoint x="-570" y="-940" as="targetPoint" />
          </mxGeometry>
        </mxCell>
        <mxCell id="EMwb9ubGGj6LIrXbFgu4-1" value="TOTAL_PRICE" style="rounded=0;whiteSpace=wrap;html=1;" vertex="1" parent="1">
          <mxGeometry x="-1100.5" y="1150" width="120" height="60" as="geometry" />
        </mxCell>
        <mxCell id="EMwb9ubGGj6LIrXbFgu4-2" value="UNIT_PRICE" style="rounded=0;whiteSpace=wrap;html=1;" vertex="1" parent="1">
          <mxGeometry x="-1217.5" y="1150" width="120" height="60" as="geometry" />
        </mxCell>
        <mxCell id="EMwb9ubGGj6LIrXbFgu4-3" value="QUANTITY" style="rounded=0;whiteSpace=wrap;html=1;" vertex="1" parent="1">
          <mxGeometry x="-1337.5" y="1150" width="120" height="60" as="geometry" />
        </mxCell>
        <mxCell id="EMwb9ubGGj6LIrXbFgu4-4" value="PRODUCT_ID" style="rounded=0;whiteSpace=wrap;html=1;" vertex="1" parent="1">
          <mxGeometry x="-980" y="1150" width="120" height="60" as="geometry" />
        </mxCell>
        <mxCell id="EMwb9ubGGj6LIrXbFgu4-5" value="ORDER_ID" style="rounded=0;whiteSpace=wrap;html=1;" vertex="1" parent="1">
          <mxGeometry x="-1457.5" y="1150" width="120" height="60" as="geometry" />
        </mxCell>
        <mxCell id="EMwb9ubGGj6LIrXbFgu4-6" value="ORDER_ITEM_ID" style="rounded=0;whiteSpace=wrap;html=1;" vertex="1" parent="1">
          <mxGeometry x="-1577.5" y="1150" width="120" height="60" as="geometry" />
        </mxCell>
        <mxCell id="EMwb9ubGGj6LIrXbFgu4-7" value="ORDER_DATE" style="rounded=0;whiteSpace=wrap;html=1;" vertex="1" parent="1">
          <mxGeometry x="-644" y="1740" width="120" height="60" as="geometry" />
        </mxCell>
        <mxCell id="EMwb9ubGGj6LIrXbFgu4-8" value="ORDER_AMOUNT" style="rounded=0;whiteSpace=wrap;html=1;" vertex="1" parent="1">
          <mxGeometry x="-764" y="1740" width="120" height="60" as="geometry" />
        </mxCell>
        <mxCell id="EMwb9ubGGj6LIrXbFgu4-9" value="CART_ID" style="rounded=0;whiteSpace=wrap;html=1;" vertex="1" parent="1">
          <mxGeometry x="-884" y="1740" width="120" height="60" as="geometry" />
        </mxCell>
        <mxCell id="EMwb9ubGGj6LIrXbFgu4-10" value="SHIPPING_DATE" style="rounded=0;whiteSpace=wrap;html=1;" vertex="1" parent="1">
          <mxGeometry x="-1004" y="1740" width="120" height="60" as="geometry" />
        </mxCell>
        <mxCell id="EMwb9ubGGj6LIrXbFgu4-11" value="ORDER_ID" style="rounded=0;whiteSpace=wrap;html=1;" vertex="1" parent="1">
          <mxGeometry x="-1124" y="1740" width="120" height="60" as="geometry" />
        </mxCell>
        <mxCell id="EMwb9ubGGj6LIrXbFgu4-12" value="category_id" style="rounded=0;whiteSpace=wrap;html=1;" vertex="1" parent="1">
          <mxGeometry x="-66" y="1347.5" width="120" height="60" as="geometry" />
        </mxCell>
        <mxCell id="EMwb9ubGGj6LIrXbFgu4-13" value="stock" style="rounded=0;whiteSpace=wrap;html=1;" vertex="1" parent="1">
          <mxGeometry x="-186" y="1347.5" width="120" height="60" as="geometry" />
        </mxCell>
        <mxCell id="EMwb9ubGGj6LIrXbFgu4-14" value="product_name" style="rounded=0;whiteSpace=wrap;html=1;" vertex="1" parent="1">
          <mxGeometry x="-306" y="1347.5" width="120" height="60" as="geometry" />
        </mxCell>
        <mxCell id="EMwb9ubGGj6LIrXbFgu4-15" value="product_id" style="rounded=0;whiteSpace=wrap;html=1;" vertex="1" parent="1">
          <mxGeometry x="-426" y="1347.5" width="120" height="60" as="geometry" />
        </mxCell>
        <mxCell id="EMwb9ubGGj6LIrXbFgu4-16" value="address" style="rounded=0;whiteSpace=wrap;html=1;" vertex="1" parent="1">
          <mxGeometry x="356" y="1740" width="120" height="60" as="geometry" />
        </mxCell>
        <mxCell id="EMwb9ubGGj6LIrXbFgu4-17" value="phone_number" style="rounded=0;whiteSpace=wrap;html=1;" vertex="1" parent="1">
          <mxGeometry x="236" y="1740" width="120" height="60" as="geometry" />
        </mxCell>
        <mxCell id="EMwb9ubGGj6LIrXbFgu4-18" value="email" style="rounded=0;whiteSpace=wrap;html=1;" vertex="1" parent="1">
          <mxGeometry x="116" y="1740" width="120" height="60" as="geometry" />
        </mxCell>
        <mxCell id="EMwb9ubGGj6LIrXbFgu4-19" value="name" style="rounded=0;whiteSpace=wrap;html=1;" vertex="1" parent="1">
          <mxGeometry x="-4" y="1740" width="120" height="60" as="geometry" />
        </mxCell>
        <mxCell id="EMwb9ubGGj6LIrXbFgu4-20" value="customer_id" style="rounded=0;whiteSpace=wrap;html=1;" vertex="1" parent="1">
          <mxGeometry x="-124" y="1740" width="120" height="60" as="geometry" />
        </mxCell>
        <mxCell id="EMwb9ubGGj6LIrXbFgu4-21" value="CUSTOMER" style="text;html=1;align=center;verticalAlign=middle;whiteSpace=wrap;rounded=0;" vertex="1" parent="1">
          <mxGeometry x="-277" y="1732.5" width="130" height="75" as="geometry" />
        </mxCell>
        <mxCell id="EMwb9ubGGj6LIrXbFgu4-22" value="PRODUCT" style="text;html=1;align=center;verticalAlign=middle;whiteSpace=wrap;rounded=0;" vertex="1" parent="1">
          <mxGeometry x="-560" y="1340" width="104" height="75" as="geometry" />
        </mxCell>
        <mxCell id="EMwb9ubGGj6LIrXbFgu4-23" value="ORDER" style="text;html=1;align=center;verticalAlign=middle;whiteSpace=wrap;rounded=0;" vertex="1" parent="1">
          <mxGeometry x="-1240" y="1740" width="96" height="60" as="geometry" />
        </mxCell>
        <mxCell id="EMwb9ubGGj6LIrXbFgu4-72" value="TOTAL_ITEM" style="rounded=0;whiteSpace=wrap;html=1;" vertex="1" parent="1">
          <mxGeometry x="-1746" y="1700" width="120" height="60" as="geometry" />
        </mxCell>
        <mxCell id="EMwb9ubGGj6LIrXbFgu4-73" value="CART_ID" style="rounded=0;whiteSpace=wrap;html=1;" vertex="1" parent="1">
          <mxGeometry x="-1866" y="1700" width="120" height="60" as="geometry" />
        </mxCell>
        <mxCell id="EMwb9ubGGj6LIrXbFgu4-74" value="EMAIL" style="rounded=0;whiteSpace=wrap;html=1;" vertex="1" parent="1">
          <mxGeometry x="346" y="1930" width="120" height="60" as="geometry" />
        </mxCell>
        <mxCell id="EMwb9ubGGj6LIrXbFgu4-75" value="PASSWORD" style="rounded=0;whiteSpace=wrap;html=1;" vertex="1" parent="1">
          <mxGeometry x="226" y="1930" width="120" height="60" as="geometry" />
        </mxCell>
        <mxCell id="EMwb9ubGGj6LIrXbFgu4-76" value="NAME" style="rounded=0;whiteSpace=wrap;html=1;" vertex="1" parent="1">
          <mxGeometry x="106" y="1930" width="120" height="60" as="geometry" />
        </mxCell>
        <mxCell id="EMwb9ubGGj6LIrXbFgu4-77" value="ADMIN_ID" style="rounded=0;whiteSpace=wrap;html=1;" vertex="1" parent="1">
          <mxGeometry x="-14" y="1930" width="120" height="60" as="geometry" />
        </mxCell>
        <mxCell id="EMwb9ubGGj6LIrXbFgu4-78" value="TRANSACTION_ID" style="rounded=0;whiteSpace=wrap;html=1;" vertex="1" parent="1">
          <mxGeometry x="26" y="2267.5" width="120" height="60" as="geometry" />
        </mxCell>
        <mxCell id="EMwb9ubGGj6LIrXbFgu4-79" value="STATUS" style="rounded=0;whiteSpace=wrap;html=1;" vertex="1" parent="1">
          <mxGeometry x="-94" y="2267.5" width="120" height="60" as="geometry" />
        </mxCell>
        <mxCell id="EMwb9ubGGj6LIrXbFgu4-80" value="DATA" style="rounded=0;whiteSpace=wrap;html=1;" vertex="1" parent="1">
          <mxGeometry x="-214" y="2267.5" width="120" height="60" as="geometry" />
        </mxCell>
        <mxCell id="EMwb9ubGGj6LIrXbFgu4-81" value="PAYMENT_ID" style="rounded=0;whiteSpace=wrap;html=1;" vertex="1" parent="1">
          <mxGeometry x="-334" y="2267.5" width="120" height="60" as="geometry" />
        </mxCell>
        <mxCell id="EMwb9ubGGj6LIrXbFgu4-82" value="PAYMENT_HISTORY_ID" style="rounded=0;whiteSpace=wrap;html=1;" vertex="1" parent="1">
          <mxGeometry x="-484" y="2267.5" width="150" height="60" as="geometry" />
        </mxCell>
        <mxCell id="EMwb9ubGGj6LIrXbFgu4-83" value="PAYMENT_DATE" style="rounded=0;whiteSpace=wrap;html=1;" vertex="1" parent="1">
          <mxGeometry x="-124" y="2137.5" width="120" height="60" as="geometry" />
        </mxCell>
        <mxCell id="EMwb9ubGGj6LIrXbFgu4-84" value="PAYMENT_MODE" style="rounded=0;whiteSpace=wrap;html=1;" vertex="1" parent="1">
          <mxGeometry x="-244" y="2137.5" width="120" height="60" as="geometry" />
        </mxCell>
        <mxCell id="EMwb9ubGGj6LIrXbFgu4-85" value="PAYMENT_ID" style="rounded=0;whiteSpace=wrap;html=1;" vertex="1" parent="1">
          <mxGeometry x="-364" y="2137.5" width="120" height="60" as="geometry" />
        </mxCell>
        <mxCell id="EMwb9ubGGj6LIrXbFgu4-86" value="ORDER_ID" style="rounded=0;whiteSpace=wrap;html=1;" vertex="1" parent="1">
          <mxGeometry x="-484" y="2137.5" width="120" height="60" as="geometry" />
        </mxCell>
        <mxCell id="EMwb9ubGGj6LIrXbFgu4-87" value="CUSTOMER_ID" style="rounded=0;whiteSpace=wrap;html=1;" vertex="1" parent="1">
          <mxGeometry x="-604" y="2137.5" width="120" height="60" as="geometry" />
        </mxCell>
        <mxCell id="EMwb9ubGGj6LIrXbFgu4-88" value="ORDER_ITEM" style="text;html=1;align=center;verticalAlign=middle;whiteSpace=wrap;rounded=0;" vertex="1" parent="1">
          <mxGeometry x="-1689.5" y="1165" width="92" height="45" as="geometry" />
        </mxCell>
        <mxCell id="EMwb9ubGGj6LIrXbFgu4-89" value="PAYMENT" style="text;html=1;align=center;verticalAlign=middle;whiteSpace=wrap;rounded=0;" vertex="1" parent="1">
          <mxGeometry x="-688" y="2137.5" width="88" height="62.5" as="geometry" />
        </mxCell>
        <mxCell id="EMwb9ubGGj6LIrXbFgu4-90" value="PAYMENT HISTORY" style="text;html=1;align=center;verticalAlign=middle;whiteSpace=wrap;rounded=0;" vertex="1" parent="1">
          <mxGeometry x="-588" y="2275" width="81" height="45" as="geometry" />
        </mxCell>
        <mxCell id="EMwb9ubGGj6LIrXbFgu4-91" value="ADMIN" style="text;html=1;align=center;verticalAlign=middle;whiteSpace=wrap;rounded=0;" vertex="1" parent="1">
          <mxGeometry x="-130" y="1937.5" width="86" height="45" as="geometry" />
        </mxCell>
        <mxCell id="EMwb9ubGGj6LIrXbFgu4-92" value="DESCRIPTION" style="rounded=0;whiteSpace=wrap;html=1;" vertex="1" parent="1">
          <mxGeometry x="-857" y="1450" width="120" height="60" as="geometry" />
        </mxCell>
        <mxCell id="EMwb9ubGGj6LIrXbFgu4-93" value="REVIEW_ID" style="rounded=0;whiteSpace=wrap;html=1;" vertex="1" parent="1">
          <mxGeometry x="-977" y="1450" width="120" height="60" as="geometry" />
        </mxCell>
        <mxCell id="EMwb9ubGGj6LIrXbFgu4-94" value="ADDRESS" style="rounded=0;whiteSpace=wrap;html=1;" vertex="1" parent="1">
          <mxGeometry x="-871.5" y="2267.5" width="120" height="60" as="geometry" />
        </mxCell>
        <mxCell id="EMwb9ubGGj6LIrXbFgu4-95" value="PHONE_NUMBER" style="rounded=0;whiteSpace=wrap;html=1;" vertex="1" parent="1">
          <mxGeometry x="-991.5" y="2267.5" width="120" height="60" as="geometry" />
        </mxCell>
        <mxCell id="EMwb9ubGGj6LIrXbFgu4-96" value="EMAIL" style="rounded=0;whiteSpace=wrap;html=1;" vertex="1" parent="1">
          <mxGeometry x="-1111.5" y="2267.5" width="120" height="60" as="geometry" />
        </mxCell>
        <mxCell id="EMwb9ubGGj6LIrXbFgu4-97" value="NAME" style="rounded=0;whiteSpace=wrap;html=1;" vertex="1" parent="1">
          <mxGeometry x="-1231.5" y="2267.5" width="120" height="60" as="geometry" />
        </mxCell>
        <mxCell id="EMwb9ubGGj6LIrXbFgu4-98" value="CUSTOMER_ID" style="rounded=0;whiteSpace=wrap;html=1;" vertex="1" parent="1">
          <mxGeometry x="-1506" y="1700" width="120" height="60" as="geometry" />
        </mxCell>
        <mxCell id="EMwb9ubGGj6LIrXbFgu4-99" value="GRAND_TOTAL" style="rounded=0;whiteSpace=wrap;html=1;" vertex="1" parent="1">
          <mxGeometry x="-1626" y="1700" width="120" height="60" as="geometry" />
        </mxCell>
        <mxCell id="EMwb9ubGGj6LIrXbFgu4-100" value="CART" style="text;html=1;align=center;verticalAlign=middle;whiteSpace=wrap;rounded=0;" vertex="1" parent="1">
          <mxGeometry x="-1974" y="1707.5" width="76" height="45" as="geometry" />
        </mxCell>
        <mxCell id="EMwb9ubGGj6LIrXbFgu4-101" value="SUPPLIER" style="text;html=1;align=center;verticalAlign=middle;whiteSpace=wrap;rounded=0;" vertex="1" parent="1">
          <mxGeometry x="-1334.5" y="2275" width="83" height="45" as="geometry" />
        </mxCell>
        <mxCell id="EMwb9ubGGj6LIrXbFgu4-103" value="SHIPMENT_ID" style="rounded=0;whiteSpace=wrap;html=1;" vertex="1" parent="1">
          <mxGeometry x="-1880" y="1890" width="120" height="60" as="geometry" />
        </mxCell>
        <mxCell id="EMwb9ubGGj6LIrXbFgu4-104" value="ADDED_AT" style="rounded=0;whiteSpace=wrap;html=1;" vertex="1" parent="1">
          <mxGeometry x="36" y="1550" width="120" height="60" as="geometry" />
        </mxCell>
        <mxCell id="EMwb9ubGGj6LIrXbFgu4-105" value="PRODUCT_ID" style="rounded=0;whiteSpace=wrap;html=1;" vertex="1" parent="1">
          <mxGeometry x="-82" y="1550" width="120" height="60" as="geometry" />
        </mxCell>
        <mxCell id="EMwb9ubGGj6LIrXbFgu4-106" value="CUSTOMER_ID" style="rounded=0;whiteSpace=wrap;html=1;" vertex="1" parent="1">
          <mxGeometry x="-204" y="1550" width="120" height="60" as="geometry" />
        </mxCell>
        <mxCell id="EMwb9ubGGj6LIrXbFgu4-107" value="WISHLIST_ID" style="rounded=0;whiteSpace=wrap;html=1;" vertex="1" parent="1">
          <mxGeometry x="-324" y="1550" width="120" height="60" as="geometry" />
        </mxCell>
        <mxCell id="EMwb9ubGGj6LIrXbFgu4-108" value="CUSTOMER_ID" style="rounded=0;whiteSpace=wrap;html=1;" vertex="1" parent="1">
          <mxGeometry x="-497" y="1450" width="120" height="60" as="geometry" />
        </mxCell>
        <mxCell id="EMwb9ubGGj6LIrXbFgu4-109" value="PRODUCT_ID" style="rounded=0;whiteSpace=wrap;html=1;" vertex="1" parent="1">
          <mxGeometry x="-617" y="1450" width="120" height="60" as="geometry" />
        </mxCell>
        <mxCell id="EMwb9ubGGj6LIrXbFgu4-110" value="RATINGS" style="rounded=0;whiteSpace=wrap;html=1;" vertex="1" parent="1">
          <mxGeometry x="-737" y="1450" width="120" height="60" as="geometry" />
        </mxCell>
        <mxCell id="EMwb9ubGGj6LIrXbFgu4-111" value="REVIEW" style="text;html=1;align=center;verticalAlign=middle;whiteSpace=wrap;rounded=0;" vertex="1" parent="1">
          <mxGeometry x="-1081" y="1452.5" width="76" height="55" as="geometry" />
        </mxCell>
        <mxCell id="EMwb9ubGGj6LIrXbFgu4-112" value="WISHLIST" style="text;html=1;align=center;verticalAlign=middle;whiteSpace=wrap;rounded=0;" vertex="1" parent="1">
          <mxGeometry x="-430" y="1557.5" width="84" height="45" as="geometry" />
        </mxCell>
        <mxCell id="EMwb9ubGGj6LIrXbFgu4-115" value="DESCRIPTION" style="rounded=0;whiteSpace=wrap;html=1;" vertex="1" parent="1">
          <mxGeometry x="-934.5" y="2130" width="120" height="60" as="geometry" />
        </mxCell>
        <mxCell id="EMwb9ubGGj6LIrXbFgu4-116" value="CATEGORY_NAME" style="rounded=0;whiteSpace=wrap;html=1;" vertex="1" parent="1">
          <mxGeometry x="-1054.5" y="2130" width="120" height="60" as="geometry" />
        </mxCell>
        <mxCell id="EMwb9ubGGj6LIrXbFgu4-117" value="CATEGORY_ID" style="rounded=0;whiteSpace=wrap;html=1;" vertex="1" parent="1">
          <mxGeometry x="-1174.5" y="2130" width="120" height="60" as="geometry" />
        </mxCell>
        <mxCell id="EMwb9ubGGj6LIrXbFgu4-118" value="ORDER_ID" style="rounded=0;whiteSpace=wrap;html=1;" vertex="1" parent="1">
          <mxGeometry x="-1400" y="1890" width="120" height="60" as="geometry" />
        </mxCell>
        <mxCell id="EMwb9ubGGj6LIrXbFgu4-119" value="SHIPMENT_DATE" style="rounded=0;whiteSpace=wrap;html=1;" vertex="1" parent="1">
          <mxGeometry x="-1520" y="1890" width="120" height="60" as="geometry" />
        </mxCell>
        <mxCell id="EMwb9ubGGj6LIrXbFgu4-120" value="ESTIMATE_DATE" style="rounded=0;whiteSpace=wrap;html=1;" vertex="1" parent="1">
          <mxGeometry x="-1640" y="1890" width="120" height="60" as="geometry" />
        </mxCell>
        <mxCell id="EMwb9ubGGj6LIrXbFgu4-121" value="ARRIVAL_DATE" style="rounded=0;whiteSpace=wrap;html=1;" vertex="1" parent="1">
          <mxGeometry x="-1760" y="1890" width="120" height="60" as="geometry" />
        </mxCell>
        <mxCell id="EMwb9ubGGj6LIrXbFgu4-122" value="SHIPMENT" style="text;html=1;align=center;verticalAlign=middle;whiteSpace=wrap;rounded=0;" vertex="1" parent="1">
          <mxGeometry x="-1984.5" y="1897.5" width="86" height="45" as="geometry" />
        </mxCell>
        <mxCell id="EMwb9ubGGj6LIrXbFgu4-123" value="CATEGORY" style="text;html=1;align=center;verticalAlign=middle;whiteSpace=wrap;rounded=0;" vertex="1" parent="1">
          <mxGeometry x="-1281.5" y="2137.5" width="84" height="45" as="geometry" />
        </mxCell>
        <mxCell id="EMwb9ubGGj6LIrXbFgu4-125" value="" style="endArrow=classic;html=1;rounded=0;exitX=0.5;exitY=1;exitDx=0;exitDy=0;" edge="1" parent="1" source="EMwb9ubGGj6LIrXbFgu4-5" target="EMwb9ubGGj6LIrXbFgu4-11">
          <mxGeometry width="50" height="50" relative="1" as="geometry">
            <mxPoint x="-1770" y="1730" as="sourcePoint" />
            <mxPoint x="-1720" y="1680" as="targetPoint" />
          </mxGeometry>
        </mxCell>
        <mxCell id="EMwb9ubGGj6LIrXbFgu4-127" value="" style="endArrow=classic;html=1;rounded=0;" edge="1" parent="1" source="EMwb9ubGGj6LIrXbFgu4-4" target="EMwb9ubGGj6LIrXbFgu4-15">
          <mxGeometry width="50" height="50" relative="1" as="geometry">
            <mxPoint x="-1770" y="1730" as="sourcePoint" />
            <mxPoint x="-1720" y="1680" as="targetPoint" />
            <Array as="points" />
          </mxGeometry>
        </mxCell>
        <mxCell id="EMwb9ubGGj6LIrXbFgu4-129" value="" style="endArrow=classic;html=1;rounded=0;" edge="1" parent="1" source="EMwb9ubGGj6LIrXbFgu4-87" target="EMwb9ubGGj6LIrXbFgu4-20">
          <mxGeometry width="50" height="50" relative="1" as="geometry">
            <mxPoint x="-1840" y="1450" as="sourcePoint" />
            <mxPoint x="-1790" y="1400" as="targetPoint" />
          </mxGeometry>
        </mxCell>
        <mxCell id="EMwb9ubGGj6LIrXbFgu4-130" value="" style="endArrow=classic;html=1;rounded=0;" edge="1" parent="1" source="EMwb9ubGGj6LIrXbFgu4-86" target="EMwb9ubGGj6LIrXbFgu4-11">
          <mxGeometry width="50" height="50" relative="1" as="geometry">
            <mxPoint x="-1840" y="1450" as="sourcePoint" />
            <mxPoint x="-1790" y="1400" as="targetPoint" />
          </mxGeometry>
        </mxCell>
        <mxCell id="EMwb9ubGGj6LIrXbFgu4-138" value="" style="endArrow=classic;html=1;rounded=0;" edge="1" parent="1" source="EMwb9ubGGj6LIrXbFgu4-20" target="EMwb9ubGGj6LIrXbFgu4-106">
          <mxGeometry width="50" height="50" relative="1" as="geometry">
            <mxPoint x="-1840" y="1900" as="sourcePoint" />
            <mxPoint x="-1912" y="1960" as="targetPoint" />
          </mxGeometry>
        </mxCell>
        <mxCell id="EMwb9ubGGj6LIrXbFgu4-139" value="" style="endArrow=classic;html=1;rounded=0;" edge="1" parent="1" source="EMwb9ubGGj6LIrXbFgu4-15" target="EMwb9ubGGj6LIrXbFgu4-105">
          <mxGeometry width="50" height="50" relative="1" as="geometry">
            <mxPoint x="-1840" y="1900" as="sourcePoint" />
            <mxPoint x="-1790" y="1850" as="targetPoint" />
          </mxGeometry>
        </mxCell>
        <mxCell id="EMwb9ubGGj6LIrXbFgu4-140" value="" style="endArrow=classic;html=1;rounded=0;" edge="1" parent="1" source="EMwb9ubGGj6LIrXbFgu4-11" target="EMwb9ubGGj6LIrXbFgu4-118">
          <mxGeometry width="50" height="50" relative="1" as="geometry">
            <mxPoint x="-1840" y="2040" as="sourcePoint" />
            <mxPoint x="-1790" y="1990" as="targetPoint" />
          </mxGeometry>
        </mxCell>
        <mxCell id="EMwb9ubGGj6LIrXbFgu4-141" value="" style="endArrow=classic;html=1;rounded=0;exitX=1;exitY=0.5;exitDx=0;exitDy=0;entryX=0.5;entryY=0;entryDx=0;entryDy=0;" edge="1" parent="1" source="EMwb9ubGGj6LIrXbFgu4-98" target="EMwb9ubGGj6LIrXbFgu4-87">
          <mxGeometry width="50" height="50" relative="1" as="geometry">
            <mxPoint x="-1100" y="1680" as="sourcePoint" />
            <mxPoint x="-1050" y="1630" as="targetPoint" />
          </mxGeometry>
        </mxCell>
        <mxCell id="EMwb9ubGGj6LIrXbFgu4-142" value="" style="endArrow=classic;html=1;rounded=0;" edge="1" parent="1" source="EMwb9ubGGj6LIrXbFgu4-108" target="EMwb9ubGGj6LIrXbFgu4-20">
          <mxGeometry width="50" height="50" relative="1" as="geometry">
            <mxPoint x="-1100" y="1680" as="sourcePoint" />
            <mxPoint x="-1050" y="1630" as="targetPoint" />
            <Array as="points">
              <mxPoint x="-440" y="1650" />
            </Array>
          </mxGeometry>
        </mxCell>
        <mxCell id="EMwb9ubGGj6LIrXbFgu4-144" value="" style="endArrow=classic;html=1;rounded=0;exitX=0.5;exitY=0;exitDx=0;exitDy=0;" edge="1" parent="1" source="EMwb9ubGGj6LIrXbFgu4-109" target="EMwb9ubGGj6LIrXbFgu4-15">
          <mxGeometry width="50" height="50" relative="1" as="geometry">
            <mxPoint x="-1100" y="1680" as="sourcePoint" />
            <mxPoint x="-1050" y="1630" as="targetPoint" />
          </mxGeometry>
        </mxCell>
        <mxCell id="EMwb9ubGGj6LIrXbFgu4-145" value="" style="endArrow=classic;html=1;rounded=0;exitX=0.5;exitY=0;exitDx=0;exitDy=0;" edge="1" parent="1" source="EMwb9ubGGj6LIrXbFgu4-81" target="EMwb9ubGGj6LIrXbFgu4-85">
          <mxGeometry width="50" height="50" relative="1" as="geometry">
            <mxPoint x="-1100" y="1680" as="sourcePoint" />
            <mxPoint x="-1050" y="1630" as="targetPoint" />
          </mxGeometry>
        </mxCell>
        <mxCell id="cYMMXkG78QgIRSTKcDWD-1" value="" style="endArrow=classic;html=1;rounded=0;" edge="1" parent="1" source="EMwb9ubGGj6LIrXbFgu4-19" target="EMwb9ubGGj6LIrXbFgu4-76">
          <mxGeometry width="50" height="50" relative="1" as="geometry">
            <mxPoint x="-760" y="1790" as="sourcePoint" />
            <mxPoint x="-710" y="1740" as="targetPoint" />
          </mxGeometry>
        </mxCell>
      </root>
    </mxGraphModel>
  </diagram>
</mxfile>
